<svg width="18" height="18" viewBox="0 0 18 18" fill="none" xmlns="http://www.w3.org/2000/svg">
<g clip-path="url(#clip0_27_3715)">
<path d="M7.77511 1.26306C6.35662 1.92533 5.05669 2.83233 3.94445 3.94453C2.83224 5.05674 1.92525 6.35671 1.26294 7.77516L3.13554 10.3834L5.74381 12.256L10.3889 10.0444L12.256 5.74387L10.3185 3.20049L7.77511 1.26306Z" fill="#985626"/>
<path d="M5.7439 12.256L7.12508 14.3728L10.2248 16.7368C11.6433 16.0746 12.9432 15.1676 14.0554 14.0554C15.1676 12.9432 16.0747 11.6432 16.7369 10.2247L14.5771 7.17824L12.2561 5.7439L5.7439 12.256Z" fill="#7B441D"/>
<path d="M11.1805 0.195557C10.7412 0.271143 10.3051 0.36842 9.87405 0.487811C9.15243 0.687674 8.45043 0.94776 7.77515 1.26304L12.256 5.74388L13.7545 5.00595L14.4924 3.50749L13.3744 1.81085L11.1805 0.195557Z" fill="#EEEEF0"/>
<path d="M0.487811 9.87401C0.36842 10.3051 0.271143 10.7412 0.195557 11.1805L1.65338 13.4197L3.50752 14.4924L5.07785 13.6826L5.74392 12.256L1.26308 7.77515C0.947795 8.45039 0.687674 9.15239 0.487811 9.87401Z" fill="#EEEEF0"/>
<path d="M6.81953 17.8044C7.25885 17.7288 7.69496 17.6315 8.12597 17.5121C8.84759 17.3123 9.54959 17.0522 10.2249 16.7369L5.744 12.256L3.50757 14.4924L4.77284 16.5391L6.81953 17.8044Z" fill="#DDDDE1"/>
<path d="M12.2561 5.7439L16.737 10.2247C17.0523 9.54946 17.3123 8.8475 17.5122 8.12588C17.6316 7.69483 17.7289 7.25875 17.8045 6.81944L16.3447 4.61736L14.4925 3.50751L12.2561 5.7439Z" fill="#DDDDE1"/>
<path d="M0.40121 16.7371L0.573581 17.4263L2.67712 16.0833L3.50755 14.4924L0.195546 11.1805C-0.121247 13.0214 -0.0534303 14.9186 0.40121 16.7371Z" fill="#7B441D"/>
<path d="M1.26279 17.5986C2.33355 17.8664 3.43141 18 4.5292 18C5.29578 18 6.06233 17.9346 6.81938 17.8043L3.50742 14.4924L0.573486 17.4263L1.26279 17.5986Z" fill="#633414"/>
<path d="M16.737 0.40121C14.9186 -0.0534303 13.0214 -0.121247 11.1804 0.195546L14.4924 3.50748L16.1447 2.84974L17.4264 0.573546L16.737 0.40121Z" fill="#7B441D"/>
<path d="M14.4924 3.50748L17.8044 6.81941C18.1212 4.97849 18.0534 3.08131 17.5988 1.26279L17.4264 0.573547L14.4924 3.50748Z" fill="#633414"/>
<path d="M10.4932 6.76484L9.40074 5.67236L8.65507 6.41799L9.74857 7.51149L9.00389 8.25817L7.90937 7.16368L7.16375 7.90931L8.25925 9.00482L7.51457 9.75154L6.41805 8.65501L5.67238 9.40064L6.76993 10.4982L5.37988 11.892L5.74393 12.256L9.38028 9.38018L12.2561 5.74386L11.8833 5.37103L10.4932 6.76484Z" fill="#DDDDE1"/>
<path d="M12.2561 5.74384L5.7439 12.256L6.12552 12.6376L7.51553 11.2438L8.61683 12.3451L9.36249 11.5994L8.26017 10.4971L9.00489 9.75045L10.1082 10.8538L10.8538 10.1081L9.74953 9.0038L10.4942 8.25709L11.5995 9.36243L12.3452 8.61677L11.2388 7.51044L12.6289 6.11667L12.2561 5.74384Z" fill="#B8B8BE"/>
</g>
<defs>
<clipPath id="clip0_27_3715">
<rect width="18" height="18" fill="white"/>
</clipPath>
</defs>
</svg>
