<svg width="18" height="18" viewBox="0 0 18 18" fill="none" xmlns="http://www.w3.org/2000/svg">
<g clip-path="url(#clip0_27_3678)">
<path d="M17.9883 9.46146C17.979 9.66631 17.9604 9.87429 17.9325 10.0791C17.9138 10.2344 17.8921 10.3926 17.8642 10.5479C17.8238 10.8086 17.7649 11.0662 17.6997 11.3207C17.6314 11.5753 17.5538 11.8236 17.4638 12.0688C17.3758 12.3212 17.2721 12.568 17.1534 12.8075C16.2599 14.711 14.7263 16.2401 12.8203 17.1282C12.5788 17.2441 12.3312 17.3467 12.0784 17.4355C11.8301 17.5255 11.5818 17.6031 11.3273 17.6714C11.2683 17.6869 11.2094 17.7024 11.1504 17.7148C10.9548 17.7614 10.7531 17.8048 10.5513 17.8359C10.5479 17.8355 10.5445 17.8366 10.542 17.839H10.5389C9.94086 17.9451 9.33313 17.9868 8.7262 17.9631C8.71031 17.9697 8.69244 17.9697 8.67655 17.9631C8.48763 17.9608 8.29899 17.9473 8.11164 17.9228C8.05655 17.9234 8.00152 17.9192 7.94712 17.9104C7.80746 17.8948 7.67086 17.8762 7.53429 17.8514C7.24094 17.8078 6.95064 17.7456 6.6652 17.6651C2.5048 16.5573 -0.282644 12.651 0.0228408 8.35647C0.0348661 8.14954 0.0576509 7.94336 0.0911248 7.73879C0.132264 7.43267 0.190281 7.12905 0.264929 6.82933C0.280435 6.77655 0.292847 6.72381 0.311483 6.67413C0.349001 6.51773 0.39457 6.36333 0.448051 6.21164C0.463557 6.14955 0.485287 6.09371 0.503923 6.03471C0.528747 5.96643 0.553571 5.89814 0.584619 5.82676C0.601708 5.7672 0.623508 5.70908 0.649809 5.65296C1.56658 3.38577 3.36781 1.59013 5.63784 0.680465C5.69681 0.655641 5.75891 0.633911 5.81787 0.612181C5.88616 0.584263 5.95444 0.559404 6.02272 0.53458C6.09069 0.50965 6.16017 0.488904 6.23067 0.472484L6.23376 0.46939C6.26481 0.456978 6.29895 0.44766 6.33 0.438342C6.45416 0.394882 6.57831 0.363834 6.70556 0.332822L6.70866 0.329728C6.75212 0.317315 6.79558 0.304903 6.83904 0.295586C6.87009 0.289362 6.898 0.280079 6.92905 0.273856C9.96523 -0.446185 13.1578 0.455571 15.3686 2.65768C16.4843 3.76327 17.2847 5.1466 17.6873 6.66484C17.7711 6.95211 17.8364 7.24448 17.8828 7.54016C17.9076 7.67672 17.9263 7.81642 17.9387 7.95299C17.9484 8.00415 17.9536 8.05608 17.9542 8.10819C17.9759 8.29163 17.9883 8.47602 17.9914 8.66069C17.9971 8.68931 17.9982 8.71864 17.9945 8.74761C18.0039 8.98657 18.0008 9.22247 17.9883 9.46146Z" fill="#E6E7E8"/>
<path d="M17.9882 9.46149C17.9789 9.66634 17.9603 9.87432 17.9324 10.0792H17.923C17.5537 10.0264 17.2216 9.96743 16.9081 9.90227C16.7808 9.87435 16.6535 9.83708 16.5294 9.80604L16.1383 10.4703C16.083 10.5656 15.9815 10.6246 15.8713 10.6255C15.8157 10.625 15.7611 10.61 15.713 10.582C15.6416 10.5406 15.5897 10.4725 15.5687 10.3926C15.5477 10.3128 15.5594 10.2279 15.6013 10.1568L15.9024 9.64461C15.6292 9.56701 15.3592 9.48009 15.0922 9.38698L14.6391 10.0016C14.5357 10.1372 14.3432 10.1661 14.2045 10.0668C14.0671 9.9644 14.038 9.77038 14.1393 9.6322L14.4963 9.15108C14.2325 9.04243 13.9748 8.92759 13.7203 8.80344L13.1957 9.37457C13.1387 9.44011 13.056 9.47748 12.9691 9.47699C12.8913 9.47661 12.8163 9.44791 12.7581 9.3963C12.6319 9.27942 12.6236 9.08265 12.7394 8.95554L13.146 8.5117C12.8946 8.37823 12.6494 8.23856 12.4104 8.08955L11.83 8.60481C11.7726 8.65551 11.6985 8.68315 11.622 8.68241C11.5331 8.68118 11.4488 8.64296 11.3892 8.57689C11.2776 8.44781 11.29 8.25308 11.4171 8.13923L11.8672 7.74194C11.6313 7.58055 11.4047 7.41293 11.1782 7.24222L10.5481 7.69229C10.4958 7.73058 10.4328 7.75126 10.368 7.75126C10.2681 7.75101 10.1744 7.70245 10.1166 7.62088C10.068 7.55453 10.0481 7.47134 10.0615 7.39015C10.075 7.30896 10.1206 7.2366 10.188 7.18944L10.6816 6.83561C10.4643 6.65249 10.2532 6.46315 10.0484 6.26761L9.37172 6.65253C9.27517 6.70857 9.15597 6.7085 9.05945 6.65235C8.96297 6.5962 8.904 6.49258 8.90502 6.38094C8.90604 6.2693 8.96691 6.1668 9.06441 6.11241L9.58899 5.81445C9.39345 5.6096 9.20101 5.40161 9.01785 5.18744L8.30706 5.49472C8.26824 5.51311 8.22584 5.52264 8.18291 5.52264C8.03639 5.52134 7.91058 5.41814 7.88069 5.27468C7.8508 5.13126 7.92493 4.98635 8.05875 4.92668L8.61125 4.68769C8.43744 4.4642 8.27292 4.23453 8.11153 3.99863L7.37278 4.23453C7.34159 4.2442 7.30921 4.24944 7.27654 4.25003C7.12341 4.24901 6.99374 4.13692 6.97057 3.98555C6.9474 3.83418 7.03762 3.68843 7.18344 3.64167L7.75766 3.46164C7.60868 3.21952 7.46589 2.97743 7.32932 2.72602L6.57197 2.88123C6.55147 2.88481 6.53073 2.88689 6.50988 2.88745C6.36287 2.88601 6.23653 2.78288 6.2057 2.63914C6.17173 2.4712 6.27999 2.30742 6.44782 2.27286L7.02827 2.15493C6.7615 1.60289 6.52929 1.03482 6.33298 0.453979C6.33298 0.447756 6.32989 0.444662 6.32989 0.438473C6.45404 0.395013 6.5782 0.363966 6.70545 0.332953L6.70854 0.329859C6.752 0.317447 6.79546 0.305035 6.83892 0.295717C6.86997 0.289493 6.89789 0.28021 6.92894 0.273987C7.10752 0.800498 7.31793 1.31565 7.55903 1.81664L7.89117 1.44107C7.96434 1.35778 8.07637 1.31987 8.18509 1.34167C8.29377 1.36344 8.38259 1.4416 8.418 1.54663C8.45341 1.65169 8.43006 1.76765 8.35675 1.85078L7.86322 2.40637C7.98428 2.62985 8.11153 2.85021 8.245 3.06438L8.53368 2.66396C8.59799 2.57412 8.70534 2.52546 8.81529 2.53625C8.92524 2.54705 9.02109 2.61568 9.06669 2.71628C9.11233 2.81688 9.1008 2.93421 9.03649 3.02402L8.60506 3.6262C8.75094 3.83727 8.89683 4.04212 9.05203 4.24388L9.29725 3.81245C9.38136 3.66343 9.57021 3.61065 9.7194 3.69451C9.86821 3.78031 9.9207 3.96958 9.83733 4.11976L9.47105 4.76227C9.63558 4.95471 9.80938 5.14096 9.98318 5.32718L10.1787 4.87401C10.2477 4.7179 10.43 4.64694 10.5864 4.71533C10.7428 4.78368 10.8145 4.96564 10.7468 5.12232L10.455 5.79588C10.6381 5.97282 10.8244 6.14353 11.0199 6.30805L11.1658 5.83934C11.2188 5.67665 11.3933 5.5873 11.5563 5.63938C11.7193 5.69145 11.8097 5.86536 11.7586 6.02869L11.5351 6.73329C11.7369 6.8885 11.9418 7.04057 12.1497 7.18646L12.2491 6.69606C12.2708 6.58695 12.3493 6.49785 12.4548 6.46244C12.5602 6.42703 12.6766 6.4508 12.7597 6.52468C12.8429 6.59855 12.8802 6.71132 12.8574 6.82021L12.7085 7.54655C12.9257 7.68002 13.1461 7.80727 13.3696 7.92833L13.4162 7.4348C13.4324 7.26423 13.5839 7.13916 13.7545 7.15544C13.9251 7.17172 14.0501 7.3232 14.0338 7.49377L13.9625 8.23252C14.1921 8.34426 14.4219 8.44978 14.6578 8.54911L14.6547 8.04626C14.6537 7.9642 14.6856 7.88512 14.7434 7.82678C14.8011 7.76845 14.8799 7.73572 14.9619 7.73586H14.965C15.1352 7.73596 15.2736 7.87299 15.2754 8.04313L15.2817 8.79429C15.5176 8.87808 15.7628 8.95569 16.0049 9.0271L15.949 8.52738C15.9363 8.4168 15.9838 8.30787 16.0734 8.24187C16.163 8.17583 16.2811 8.16279 16.3829 8.20766C16.4848 8.25252 16.5549 8.34844 16.5667 8.45913L16.6505 9.19788C16.7777 9.22893 16.9081 9.26616 17.0384 9.29412C17.3302 9.35906 17.6406 9.41184 17.9882 9.46149Z" fill="#D75E72"/>
<path d="M11.3396 16.048L10.7375 16.526C10.784 16.6471 10.8368 16.765 10.8833 16.8892C10.9827 17.1716 11.0696 17.4416 11.1472 17.6931C11.1497 17.7 11.1507 17.7074 11.1503 17.7148C10.9547 17.7613 10.753 17.8048 10.5512 17.8358C10.5478 17.8354 10.5444 17.8365 10.5419 17.8389H10.5388C10.4705 17.6031 10.3898 17.3547 10.2998 17.0971C10.2532 16.9729 10.2005 16.8519 10.1508 16.7308L9.40588 16.7525H9.39656C9.22743 16.7528 9.08932 16.6174 9.08615 16.4483C9.08352 16.3663 9.1139 16.2866 9.17047 16.2271C9.22705 16.1676 9.30514 16.1332 9.38724 16.1317L9.89318 16.1162C9.78454 15.8866 9.67592 15.6568 9.55795 15.4303L8.81302 15.5296C8.79973 15.5322 8.78619 15.5332 8.77265 15.5327C8.60929 15.5325 8.47402 15.4058 8.46341 15.2427C8.45275 15.0797 8.57037 14.9364 8.73232 14.915L9.22895 14.8498C9.09857 14.6294 8.962 14.4152 8.81924 14.2042L8.09913 14.378C8.07578 14.384 8.05184 14.3871 8.02775 14.3873C7.87012 14.3886 7.73665 14.2713 7.71756 14.1148C7.6985 13.9583 7.7999 13.8125 7.95324 13.7758L8.43436 13.6579C8.28225 13.4561 8.12708 13.2544 7.96256 13.0589L7.26728 13.3072C7.2345 13.3193 7.1998 13.3256 7.16485 13.3258C7.01404 13.3245 6.8857 13.2157 6.85979 13.0671C6.83387 12.9186 6.91784 12.7727 7.05929 12.7205L7.528 12.556C7.35729 12.3698 7.18036 12.1866 6.99723 12.0097L6.3299 12.3295C6.28771 12.3476 6.24235 12.3571 6.19643 12.3574C6.07667 12.3586 5.96679 12.2911 5.91397 12.1836C5.84256 12.0283 5.90708 11.8443 6.05986 11.7676L6.5037 11.5566C6.31436 11.389 6.11879 11.2276 5.92016 11.0693L5.29319 11.4541C5.22343 11.4977 5.13905 11.5115 5.05909 11.4922C4.97909 11.4729 4.91025 11.4223 4.86795 11.3517C4.7773 11.206 4.82175 11.0144 4.96728 10.9234L5.3863 10.6688C5.18145 10.5199 4.97037 10.3771 4.75621 10.2405L4.17266 10.6906C4.08514 10.7596 3.96732 10.7763 3.86412 10.7343C3.76088 10.6923 3.68817 10.5981 3.67365 10.4876C3.65913 10.3771 3.70508 10.2674 3.79401 10.2001L4.1882 9.89595C3.96781 9.7718 3.74123 9.65383 3.51465 9.54212L2.97766 10.0512C2.91961 10.1058 2.8432 10.1368 2.76349 10.1381C2.63645 10.1374 2.52252 10.0598 2.47544 9.94177C2.4284 9.82377 2.45762 9.68903 2.54932 9.60112L2.90628 9.2597C2.6766 9.16037 2.4407 9.06417 2.20167 8.97415L1.72056 9.53906C1.64848 9.62334 1.53691 9.66276 1.42787 9.64247C1.31883 9.62218 1.22893 9.54529 1.19197 9.44071C1.15502 9.33614 1.17668 9.21983 1.24876 9.13555L1.57467 8.75376C1.06504 8.59297 0.54693 8.46034 0.0227051 8.35647C0.0347304 8.14954 0.0575151 7.94335 0.0909891 7.73878C0.0972127 7.73878 0.103401 7.74188 0.109625 7.74188C0.693695 7.8532 1.2701 8.00148 1.83539 8.18572L1.87263 7.59286C1.88321 7.42166 2.0304 7.29139 2.2016 7.30165C2.37281 7.31192 2.50336 7.4589 2.49341 7.6301L2.44376 8.40299C2.71071 8.50232 2.97143 8.61093 3.23216 8.72581L3.33149 8.12985C3.3606 7.96181 3.51996 7.84888 3.68817 7.87704C3.85635 7.9052 3.9702 8.06392 3.94299 8.23228L3.81574 8.99894C4.06714 9.12619 4.31858 9.25967 4.56376 9.39936L4.72516 8.81892C4.75473 8.71146 4.8395 8.62802 4.94741 8.60021C5.05533 8.5724 5.16988 8.60443 5.24769 8.68425C5.32551 8.76403 5.35469 8.87936 5.32421 8.98653L5.11313 9.73456C5.35213 9.88667 5.58802 10.045 5.81774 10.2125L6.03813 9.64764C6.10286 9.48952 6.28226 9.41223 6.44164 9.47384C6.51896 9.50337 6.58103 9.5629 6.61376 9.63889C6.6465 9.71487 6.64709 9.80088 6.61545 9.87735L6.3299 10.6037C6.55029 10.7806 6.76756 10.9606 6.97863 11.15L7.26109 10.6099C7.34112 10.4586 7.52835 10.4003 7.68011 10.4795C7.82983 10.5609 7.8876 10.7466 7.81049 10.8986L7.45043 11.5876C7.65219 11.7863 7.85085 11.988 8.04016 12.196L8.3723 11.6963C8.46791 11.5543 8.66017 11.5162 8.80272 11.6109C8.94526 11.7057 8.98454 11.8977 8.89066 12.0408L8.46232 12.6864C8.64234 12.9037 8.81615 13.1272 8.98376 13.3569L9.36555 12.8913C9.4755 12.7594 9.67142 12.7411 9.80384 12.8505C9.93626 12.9598 9.95539 13.1557 9.84663 13.2886L9.3531 13.8846C9.50831 14.1205 9.66038 14.3594 9.80317 14.6047L10.2284 14.1856C10.3076 14.1075 10.4225 14.0777 10.5297 14.1075C10.6369 14.1373 10.72 14.2221 10.7475 14.3299C10.775 14.4377 10.7427 14.552 10.6629 14.6295L10.1198 15.1633C10.2501 15.4148 10.3712 15.6693 10.4891 15.93L10.9516 15.5606C11.0386 15.4912 11.1562 15.4734 11.2598 15.5142C11.3635 15.5549 11.4375 15.6478 11.4539 15.758C11.4705 15.8682 11.4269 15.9788 11.3396 16.048Z" fill="#D75E72"/>
</g>
<defs>
<clipPath id="clip0_27_3678">
<rect width="18" height="18" fill="white"/>
</clipPath>
</defs>
</svg>
