<svg width="18" height="18" viewBox="0 0 18 18" fill="none" xmlns="http://www.w3.org/2000/svg">
<rect width="18" height="18" fill="#1E1E1E"/>
<g clip-path="url(#clip0_0_1)">
<rect width="1440" height="1809" transform="translate(-20 -246)" fill="#F8F8FF"/>
<rect x="-20" y="-246" width="256" height="1809" fill="#121432"/>
<g clip-path="url(#clip1_0_1)">
<path d="M17.8593 9.14063C17.8612 10.2835 17.6404 11.4158 17.2092 12.4743C17.122 12.6916 17.0258 12.904 16.9205 13.1116C15.9755 14.9918 14.3942 16.4758 12.4579 17.2998C12.2979 17.3671 12.1345 17.4313 11.9707 17.4884C10.442 18.0314 8.7937 18.1447 7.20515 17.8158C5.6166 17.487 4.1487 16.7287 2.96125 15.6234C2.85704 15.525 2.75411 15.4247 2.65553 15.3219C1.52894 14.1653 0.739655 12.723 0.372867 11.1505C0.00607984 9.57815 0.075723 7.93543 0.574279 6.39971C0.62856 6.22815 0.690014 6.05813 0.755686 5.89233C1.55786 3.86288 3.07901 2.19972 5.029 1.22007C5.22756 1.12008 5.43048 1.02713 5.63762 0.942896C7.65017 0.119102 9.89508 0.0626575 11.9465 0.784271C12.0993 0.837146 12.2494 0.894239 12.398 0.957099C13.4345 1.38736 14.3792 2.01157 15.1816 2.79619C15.2844 2.89463 15.3845 2.99771 15.4831 3.10191C16.2474 3.922 16.8491 4.87967 17.2563 5.92411C17.315 6.0698 17.3679 6.21844 17.4164 6.3699C17.7106 7.26401 17.8601 8.19936 17.8593 9.14063Z" fill="#DE7A24"/>
<path d="M14.8759 7.3745C15.9557 8.91929 16.7464 10.6472 17.2094 12.4743C17.1222 12.6916 17.026 12.904 16.9207 13.1116C16.5028 11.1831 15.7149 9.35399 14.6004 7.72564C13.9373 8.65587 13.4644 10.0305 13.1929 11.8178C13.1729 12.0569 12.8857 15.4516 12.4584 17.2992C12.2983 17.3665 12.1349 17.4307 11.9711 17.4878C12.4326 15.7581 12.7628 11.8164 12.7656 11.7749C12.7656 11.7693 12.767 11.7649 12.767 11.7609C13.06 9.82897 13.5887 8.35001 14.3374 7.35931C13.8995 6.76672 13.4185 6.20725 12.8982 5.68545L2.9614 15.6234C2.8572 15.525 2.75426 15.4247 2.65568 15.3219L12.5924 5.38676C12.0565 4.87878 11.4865 4.40804 10.8863 3.97784C10.3314 4.36704 9.72365 4.67485 9.08154 4.8919C8.22187 5.19046 7.32611 5.37259 6.41811 5.43345C4.95476 5.5392 2.32409 5.80203 0.57373 6.3994C0.628012 6.22784 0.689465 6.05782 0.755137 5.89203C2.53854 5.35048 4.99048 5.10621 6.38661 5.00609C7.2562 4.94812 8.11408 4.77369 8.93726 4.48746C9.49323 4.29812 10.0229 4.03884 10.5134 3.71586C8.8385 2.5815 6.98441 1.73756 5.02901 1.21948C5.22757 1.1195 5.4305 1.02654 5.63764 0.942309C7.50363 1.49855 9.27121 2.34307 10.8763 3.44529C12.0295 2.48215 12.0594 1.40623 11.9466 0.784668C12.0995 0.837543 12.2495 0.894637 12.3982 0.957496C12.4639 1.65345 12.3324 2.73654 11.2335 3.7025C11.8172 4.12548 12.3724 4.58647 12.8954 5.08245L15.1817 2.79617C15.2845 2.89461 15.3846 2.99768 15.4832 3.10189L13.2012 5.38254C13.7114 5.89503 14.1851 6.44271 14.6187 7.02153C15.5517 6.01128 16.5906 5.87543 17.2565 5.92465C17.3151 6.07034 17.368 6.21898 17.4165 6.37043C16.8207 6.27706 15.7989 6.32698 14.8759 7.3745Z" fill="#16253D"/>
</g>
</g>
<defs>
<clipPath id="clip0_0_1">
<rect width="1440" height="1809" fill="white" transform="translate(-20 -246)"/>
</clipPath>
<clipPath id="clip1_0_1">
<rect width="18" height="18" fill="white"/>
</clipPath>
</defs>
</svg>
