<svg width="18" height="18" viewBox="0 0 18 18" fill="none" xmlns="http://www.w3.org/2000/svg">
<path d="M15.6358 4.46713C15.6358 2.00002 13.6358 0 11.1686 0H8.04512C5.57801 0 3.57799 2.00002 3.57799 4.46713V4.80404C3.57799 5.40226 3.6976 5.97197 3.91092 6.49341C3.02379 6.73922 2.36401 7.54754 2.36401 8.51019C2.36401 9.77443 2.73365 11.0111 3.42745 12.068L5.58743 15.3584H13.6522C14.9441 13.1948 15.6339 10.6487 15.6339 8.05241L15.6358 4.46713Z" fill="#F7524B"/>
<path d="M11.1688 9.52863H8.47931C8.33718 9.52863 8.22217 9.41337 8.22217 9.27123C8.22217 9.1291 8.33718 9.01409 8.47931 9.01409H11.1688C12.2687 9.01409 13.3093 8.59247 14.0993 7.82681C14.2012 7.72787 14.364 7.73089 14.4629 7.83234C14.5613 7.93429 14.5588 8.09701 14.4569 8.19595C13.5709 9.05528 12.4033 9.52863 11.1688 9.52863Z" fill="#C23B38"/>
<path d="M8.91504 8.44156C8.91504 9.69704 7.89387 10.7182 6.6384 10.7182H4.93742C4.79566 10.7182 4.67996 10.6025 4.67996 10.4607C4.67996 10.319 4.79566 10.2033 4.93742 10.2033H6.6384C7.61038 10.2033 8.40011 9.41355 8.40011 8.44156C8.40011 7.46956 7.61038 6.67983 6.6384 6.67983H3.4563C3.59804 6.60172 3.75136 6.53809 3.91046 6.49469C3.86707 6.38765 3.82657 6.27772 3.79186 6.16492H6.6384C7.89387 6.16492 8.91504 7.18607 8.91504 8.44156Z" fill="#C23B38"/>
<path opacity="0.15" d="M15.634 4.46523V8.05238C15.634 10.6487 14.9441 13.1948 13.6523 15.3583H5.58749L4.67188 13.9599C4.74085 13.9661 4.8161 13.9661 4.89139 13.9661C9.41291 13.9661 13.0753 10.2975 13.0753 5.7822C13.0753 3.52454 12.1597 1.48016 10.686 0.00012207H11.1688C13.6335 0.000124883 15.634 2.00064 15.634 4.46523Z" fill="black"/>
<path d="M12.7634 18H6.47623C5.98534 18 5.5874 17.602 5.5874 17.1112V15.3583H13.6522V17.1112C13.6522 17.602 13.2542 18 12.7634 18Z" fill="#424249"/>
<path opacity="0.15" d="M13.6511 15.3563V17.1101C13.6511 17.6038 13.2551 17.9998 12.7614 17.9998H10.9716C11.1774 17.6861 11.3008 17.3158 11.3008 16.9146C11.3008 16.2718 10.9871 15.706 10.5088 15.3563L13.6511 15.3563Z" fill="black"/>
</svg>
