<svg width="18" height="18" viewBox="0 0 18 18" fill="none" xmlns="http://www.w3.org/2000/svg">
<g clip-path="url(#clip0_27_3770)">
<path d="M17.9999 9.00011C18.0032 10.5584 17.5988 12.0905 16.8268 13.4442C16.7214 13.6304 16.6096 13.8135 16.4886 13.9935C16.358 14.1932 16.2171 14.3859 16.0664 14.5707C15.9299 14.7476 15.7809 14.9214 15.6289 15.089C15.4459 15.2877 15.2535 15.4769 15.0548 15.66C14.8717 15.8277 14.6793 15.989 14.4807 16.138C14.3379 16.2528 14.1889 16.3583 14.04 16.4607C13.8073 16.6159 13.5713 16.7618 13.3262 16.8983H13.32C12.9064 17.1239 12.4757 17.317 12.032 17.4756C11.7048 17.5948 11.3698 17.6923 11.0297 17.7673C10.6711 17.8523 10.3072 17.9124 9.94037 17.9473C9.91785 17.9519 9.89505 17.955 9.87212 17.9565C9.58345 17.9845 9.29479 18.0001 8.99995 18.0001C4.02949 18.0001 0 13.9706 0 9.00011C0.000137328 8.09223 0.136092 7.18944 0.40347 6.32179C0.523221 5.94359 0.667415 5.57349 0.834819 5.21383C0.979563 4.90223 1.1412 4.5986 1.31904 4.30458L1.32522 4.29524C1.58559 3.87062 1.8814 3.4688 2.20975 3.09431C2.39006 2.88241 2.58287 2.68136 2.78694 2.49212L2.79312 2.48594C3.07753 2.20881 3.38253 1.95366 3.70553 1.72253C3.90411 1.57669 4.109 1.44019 4.31691 1.30972C4.53417 1.1794 4.7576 1.05841 4.98419 0.946628C5.18497 0.841847 5.3911 0.747639 5.60176 0.664281H5.60478C5.81283 0.577352 6.02377 0.499762 6.24102 0.43151C6.44276 0.366279 6.65067 0.307365 6.85859 0.257652C9.54322 -0.39864 12.3804 0.214256 14.5546 1.92029C16.7288 3.62632 17.9991 6.23652 17.9999 9.00011Z" fill="#C03A2B"/>
<path d="M15.055 15.6599C14.8719 15.8276 14.6795 15.989 14.481 16.138C8.21879 15.3201 3.53932 9.97744 3.55374 3.66213C3.55237 3.01256 3.60318 2.36396 3.70577 1.7225C3.90434 1.57666 4.10924 1.44015 4.31715 1.30969C4.3622 1.37492 4.37895 1.45554 4.36371 1.53313C3.77567 4.80126 4.57093 8.16663 6.55986 10.8257C8.54865 13.4847 11.5523 15.1984 14.8533 15.5576C14.9306 15.5664 15.0023 15.6028 15.055 15.6599Z" fill="#E6E7E8"/>
<path d="M16.0667 14.5707C15.9302 14.7475 15.7812 14.9214 15.6292 15.0889C15.4865 15.0672 15.3468 15.0455 15.2072 15.0207C15.126 15.0063 15.0539 14.9603 15.0068 14.8928C14.9597 14.8253 14.9413 14.7418 14.9557 14.6607C14.959 14.6426 14.9642 14.6249 14.9712 14.6079C15.0214 14.4657 15.1676 14.3814 15.3158 14.4093C15.5112 14.4465 15.7068 14.4745 15.9053 14.5024C15.9649 14.5082 16.0213 14.5319 16.0667 14.5707Z" fill="#E6E7E8"/>
<path d="M7.54963 9.3511C7.45336 9.20924 7.26041 9.17229 7.11855 9.26856C6.97669 9.36469 6.93975 9.55777 7.03602 9.69964C7.26879 10.0425 7.5223 10.3786 7.78885 10.6979C7.85889 10.7865 7.97136 10.83 8.08273 10.8117C8.19397 10.7935 8.28667 10.7161 8.32457 10.6098C8.36261 10.5036 8.33981 10.385 8.26524 10.3004C8.01174 9.99654 7.77086 9.67725 7.54963 9.3511Z" fill="#E6E7E8"/>
<path d="M5.84448 7.50485C6.00488 7.88717 6.18588 8.26633 6.38542 8.63204C6.43829 8.7294 6.53923 8.79134 6.65005 8.79422C6.76087 8.79711 6.86483 8.74066 6.92278 8.64618C6.98074 8.5517 6.98389 8.43332 6.93102 8.33596C6.74192 7.98769 6.5704 7.63023 6.41714 7.26493C6.35081 7.10687 6.16899 7.0323 6.01079 7.09863C5.85272 7.16482 5.77829 7.34664 5.84448 7.50485Z" fill="#E6E7E8"/>
<path d="M5.2382 4.15868H5.26924C5.35122 4.15086 5.42676 4.11076 5.47921 4.04717C5.53154 3.98359 5.55653 3.90174 5.54857 3.81976C5.51066 3.43126 5.49171 3.03506 5.49144 2.63146C5.4913 2.54975 5.45834 2.47147 5.39998 2.4142C5.34175 2.3568 5.26292 2.32522 5.18121 2.32645C5.00873 2.32892 4.87044 2.46968 4.87085 2.64203C4.87085 3.05484 4.89104 3.47163 4.931 3.88005C4.94721 4.0377 5.07973 4.15786 5.2382 4.15868Z" fill="#E6E7E8"/>
<path d="M5.11323 5.1162C5.19466 5.52543 5.2967 5.93028 5.41892 6.32922C5.45888 6.45968 5.57918 6.54867 5.71555 6.54867C5.74631 6.54853 5.77694 6.544 5.80646 6.53507C5.88529 6.5109 5.95121 6.45666 5.98979 6.38387C6.02852 6.31123 6.03662 6.22608 6.01259 6.14739C5.89641 5.76837 5.79946 5.38357 5.722 4.9948C5.6885 4.82671 5.52508 4.71753 5.35699 4.75104C5.18876 4.78455 5.07972 4.94797 5.11323 5.1162Z" fill="#E6E7E8"/>
<path d="M10.4934 12.753C10.4483 12.822 10.4325 12.906 10.4496 12.9865C10.4665 13.0671 10.5147 13.1375 10.5836 13.1826C10.9321 13.4097 11.2955 13.6223 11.664 13.8132C11.8156 13.8886 11.9997 13.8286 12.0777 13.6783C12.1557 13.528 12.0987 13.3428 11.9497 13.2624C11.5997 13.0808 11.2543 12.8794 10.9244 12.6621C10.8552 12.6167 10.7709 12.6007 10.6899 12.6179C10.609 12.6349 10.5381 12.6835 10.4934 12.753Z" fill="#E6E7E8"/>
<path d="M8.63305 11.1784C8.51303 11.3006 8.51481 11.4971 8.63704 11.6172C8.93284 11.908 9.24719 12.1876 9.57156 12.4483C9.70518 12.5562 9.90087 12.5353 10.0088 12.4017C10.1167 12.2681 10.0959 12.0724 9.96225 11.9645C9.65381 11.7162 9.35485 11.4506 9.07347 11.1743C9.01469 11.1162 8.93504 11.0839 8.85237 11.0847C8.7697 11.0854 8.69073 11.1192 8.63305 11.1784Z" fill="#E6E7E8"/>
<path d="M12.6283 13.9304C12.5978 14.0069 12.5989 14.0925 12.6314 14.1681C12.664 14.2438 12.7252 14.3034 12.8019 14.3339C13.1897 14.4881 13.5851 14.6227 13.9865 14.7374C14.0141 14.7455 14.0429 14.7495 14.0717 14.7495C14.2268 14.7497 14.3582 14.6356 14.3796 14.4822C14.4012 14.3287 14.3062 14.1828 14.1572 14.1405C13.7779 14.0322 13.399 13.9031 13.0315 13.757C12.8723 13.6935 12.6917 13.7713 12.6283 13.9304Z" fill="#E6E7E8"/>
<path d="M5.62666 0.834945C5.59563 1.03352 5.57077 1.23526 5.54907 1.43383C5.53451 1.59258 5.40117 1.71385 5.24173 1.71316H5.21069C5.04013 1.69462 4.91585 1.54273 4.93151 1.37176C4.94702 1.22908 4.96254 1.08626 4.98424 0.946593C5.18501 0.841811 5.39114 0.747604 5.60181 0.664246H5.60483C5.62762 0.718078 5.63518 0.777129 5.62666 0.834945Z" fill="#E6E7E8"/>
<path d="M1.32536 4.29523C1.42932 4.35428 1.48974 4.46785 1.48054 4.58705C1.46502 4.78563 1.45568 4.98736 1.45266 5.1891C1.44827 5.3576 1.3108 5.49218 1.1423 5.49314H1.13598C0.979705 5.4893 0.850616 5.36955 0.834961 5.21382L1.32536 4.29523Z" fill="#E6E7E8"/>
<path d="M2.44962 10.2128C2.277 9.81868 2.1258 9.41534 1.99685 9.00473C1.96362 8.89885 1.87641 8.81879 1.7682 8.79476C1.65985 8.77059 1.54696 8.80602 1.47198 8.88787C1.39686 8.96958 1.37118 9.08507 1.40442 9.19095C1.54037 9.62326 1.69954 10.048 1.88108 10.4633C1.92324 10.5684 2.0191 10.6421 2.13143 10.656C2.24377 10.6697 2.35459 10.6212 2.42092 10.5295C2.48711 10.4378 2.4981 10.3173 2.44962 10.215V10.2128Z" fill="#E6E7E8"/>
<path d="M1.67778 7.75468C1.59428 7.33267 1.53359 6.9064 1.49596 6.47794C1.48813 6.36602 1.42056 6.267 1.31908 6.21894C1.21773 6.17101 1.09825 6.18145 1.00679 6.2464C0.915196 6.31136 0.865896 6.42067 0.877706 6.53218C0.917256 6.98303 0.980977 7.43127 1.06887 7.87512C1.09029 7.98402 1.16816 8.07328 1.27321 8.10912C1.37827 8.14497 1.49445 8.12203 1.57794 8.04884C1.66144 7.97564 1.69948 7.86358 1.67778 7.75468Z" fill="#E6E7E8"/>
<path d="M7.55906 15.8515C7.18416 15.6404 6.82092 15.4096 6.4706 15.1601C6.38037 15.0957 6.26268 15.0843 6.16175 15.1301C6.06081 15.1761 5.99201 15.2724 5.98143 15.3828C5.97072 15.4932 6.01975 15.6009 6.10997 15.6653C6.47829 15.9279 6.86034 16.1705 7.25461 16.3925C7.40388 16.4765 7.59312 16.4235 7.6773 16.2742C7.76135 16.1248 7.70834 15.9356 7.55906 15.8515Z" fill="#E6E7E8"/>
<path d="M4.54619 13.4478C4.42987 13.3264 4.23816 13.3197 4.11361 13.4326C3.98905 13.5456 3.9771 13.7371 4.08655 13.8646C4.39005 14.1997 4.71112 14.5185 5.04868 14.8192C5.17667 14.9332 5.37291 14.9218 5.48675 14.7938C5.60074 14.6658 5.58934 14.4696 5.46135 14.3556C5.14041 14.0695 4.83486 13.7664 4.54619 13.4478Z" fill="#E6E7E8"/>
<path d="M9.92501 16.862C9.51385 16.7369 9.10983 16.5897 8.7146 16.421C8.55736 16.3554 8.37663 16.4287 8.30976 16.5854C8.24274 16.7421 8.31456 16.9234 8.4707 16.9916C8.88667 17.1697 9.31198 17.3252 9.7447 17.4572C9.77395 17.4659 9.80444 17.4705 9.83492 17.4705C9.98873 17.4705 10.1193 17.3579 10.142 17.2057C10.1645 17.0536 10.0722 16.9078 9.92501 16.8632V16.862Z" fill="#E6E7E8"/>
<path d="M3.03068 11.3646C2.94499 11.216 2.75506 11.1649 2.60647 11.2506C2.45788 11.3363 2.4068 11.5262 2.49249 11.675C2.71798 12.0673 2.96435 12.4473 3.23049 12.8133C3.28899 12.8936 3.38251 12.9413 3.48194 12.9411C3.59867 12.941 3.70537 12.8753 3.75824 12.7712C3.81112 12.6671 3.80109 12.5423 3.73229 12.448C3.47919 12.0996 3.24505 11.738 3.03068 11.3646Z" fill="#E6E7E8"/>
<path d="M12.0322 17.4756C11.7049 17.5948 11.37 17.6923 11.0298 17.7673C10.8752 17.7163 10.7866 17.554 10.8276 17.3965C10.8687 17.239 11.0251 17.1404 11.185 17.1714C11.3836 17.2086 11.5821 17.2397 11.7808 17.2675C11.898 17.282 11.996 17.3631 12.0322 17.4756Z" fill="#E6E7E8"/>
<path d="M2.79335 2.4859C2.86078 2.5547 2.89195 2.65138 2.87712 2.74669C2.84924 2.94526 2.82754 3.14384 2.80887 3.34873C2.79445 3.50913 2.65959 3.63177 2.49851 3.63108C2.48917 3.63163 2.47969 3.63053 2.47063 3.62806C2.38905 3.62092 2.31352 3.58151 2.2612 3.51861C2.20874 3.45571 2.18361 3.37441 2.1913 3.29284C2.19748 3.22459 2.20366 3.15936 2.20998 3.09427L2.79335 2.4859Z" fill="#E6E7E8"/>
<path d="M9.42762 15.8096C9.52842 15.8577 9.64734 15.8479 9.7388 15.7839C9.8304 15.7201 9.88066 15.612 9.87037 15.5008C9.85993 15.3897 9.79071 15.2926 9.68895 15.2466C9.32037 15.0753 8.9607 14.8853 8.61148 14.6771C8.46412 14.5893 8.27365 14.6377 8.1859 14.785C8.09814 14.9322 8.14635 15.1228 8.2937 15.2106C8.66133 15.4294 9.0398 15.6292 9.42762 15.8096Z" fill="#E6E7E8"/>
<path d="M6.65617 13.2247C6.57433 13.1499 6.4587 13.1245 6.35309 13.1579C6.24735 13.1914 6.16742 13.2786 6.14353 13.3869C6.11963 13.4951 6.15534 13.608 6.23719 13.6829C6.55304 13.9715 6.88332 14.244 7.22691 14.499C7.28006 14.5392 7.34488 14.5611 7.41148 14.5611C7.5451 14.5611 7.66361 14.4757 7.70591 14.3489C7.74821 14.2222 7.70454 14.0826 7.5977 14.0024C7.27099 13.7592 6.95665 13.4997 6.65617 13.2247Z" fill="#E6E7E8"/>
<path d="M11.9905 16.0405C11.5947 15.9481 11.204 15.8356 10.8197 15.7035C10.7142 15.6648 10.5961 15.686 10.5108 15.7591C10.4255 15.832 10.3864 15.9455 10.4084 16.0556C10.4303 16.1657 10.5101 16.2554 10.617 16.29C11.0214 16.4294 11.4328 16.548 11.8493 16.6453C12.0144 16.6799 12.1767 16.5763 12.2152 16.4122C12.2535 16.248 12.1538 16.0833 11.9905 16.0412V16.0405Z" fill="#E6E7E8"/>
<path d="M4.25531 10.8084C4.32658 10.7671 4.37849 10.6992 4.3995 10.6196C4.42065 10.5401 4.40939 10.4553 4.36805 10.3842C4.16385 10.032 3.9779 9.6694 3.81091 9.29793C3.73799 9.14632 3.5574 9.08054 3.40387 9.14962C3.25048 9.21869 3.18003 9.39763 3.24526 9.55281C3.4209 9.9431 3.61646 10.3243 3.83137 10.6946C3.91748 10.8426 4.10713 10.893 4.25531 10.8072V10.8084Z" fill="#E6E7E8"/>
<path d="M5.033 11.407C4.92959 11.2767 4.742 11.2509 4.60728 11.3487C4.4727 11.4463 4.43905 11.6328 4.53106 11.7714C4.78224 12.1179 5.05085 12.4513 5.33581 12.7704C5.44993 12.8983 5.64617 12.9094 5.77402 12.7953C5.90187 12.681 5.913 12.4849 5.79888 12.3571C5.52779 12.0535 5.27209 11.7364 5.033 11.407Z" fill="#E6E7E8"/>
<path d="M2.53305 6.12967C2.54513 6.12981 2.55722 6.12899 2.56916 6.12748C2.65087 6.11814 2.72558 6.07667 2.77667 6.01212C2.82789 5.94758 2.85137 5.86545 2.8419 5.78374C2.79479 5.37959 2.76815 4.97337 2.76211 4.56647C2.75771 4.39604 2.61805 4.26009 2.44749 4.2605C2.36509 4.2616 2.28668 4.29552 2.22928 4.35443C2.17187 4.41348 2.14029 4.49286 2.14139 4.57526C2.14743 5.0029 2.17503 5.43012 2.22406 5.85502C2.24218 6.01198 2.37526 6.13009 2.53305 6.12967Z" fill="#E6E7E8"/>
<path d="M2.67374 6.7504C2.50634 6.78734 2.40059 6.95296 2.43754 7.12036C2.53023 7.53853 2.64421 7.95175 2.77893 8.35824C2.82109 8.48527 2.93974 8.57082 3.0735 8.57082C3.10674 8.57096 3.13969 8.5656 3.17128 8.55503C3.24942 8.52921 3.3141 8.47332 3.35104 8.39971C3.38798 8.3261 3.39416 8.24096 3.36835 8.16282C3.24008 7.77652 3.13187 7.38389 3.04398 6.9866C3.02626 6.90613 2.97724 6.83609 2.90788 6.79173C2.8384 6.74751 2.75421 6.73255 2.67374 6.7504Z" fill="#E6E7E8"/>
<path d="M14.0403 16.4607C13.8075 16.6159 13.5716 16.7617 13.3265 16.8982H13.3203C13.255 16.8889 13.1868 16.8827 13.1216 16.8734C12.9596 16.843 12.8496 16.6914 12.8711 16.528C12.8925 16.3646 13.0379 16.2465 13.2023 16.259C13.4009 16.2838 13.5996 16.3024 13.8044 16.3179C13.9017 16.3236 13.99 16.3771 14.0403 16.4607Z" fill="#E6E7E8"/>
<path d="M6.86815 0.366256C6.84961 0.567991 6.8341 0.766705 6.8216 0.971462C6.8135 1.13516 6.67823 1.26356 6.5144 1.26315H6.49572C6.32543 1.25326 6.19524 1.10769 6.20403 0.937405C6.21021 0.769727 6.22573 0.599028 6.24125 0.431487C6.44298 0.366256 6.6509 0.307342 6.85881 0.257629C6.86829 0.29306 6.87145 0.329864 6.86815 0.366256Z" fill="#E6E7E8"/>
<path d="M10.0826 10.7222C10.1629 10.7987 10.278 10.8266 10.3844 10.7953C10.4908 10.7641 10.5726 10.6784 10.5987 10.5705C10.6249 10.4627 10.5915 10.3491 10.5112 10.2725C10.1999 9.97542 9.90473 9.6619 9.62692 9.33341C9.55619 9.2462 9.44372 9.20404 9.33304 9.22327C9.22235 9.24236 9.13061 9.31995 9.09326 9.42583C9.05604 9.53185 9.07884 9.64967 9.153 9.73399C9.44496 10.0798 9.75532 10.4096 10.0826 10.7222Z" fill="#E6E7E8"/>
<path d="M13.4256 13.0131C13.8352 13.2052 14.2547 13.3751 14.6825 13.5217C14.7149 13.533 14.7488 13.5388 14.7831 13.5388C14.9347 13.5388 15.0642 13.429 15.0891 13.2795C15.1141 13.1298 15.0272 12.9841 14.8837 12.9349C14.477 12.7954 14.0782 12.6339 13.6892 12.4514C13.5882 12.4006 13.4678 12.4086 13.3746 12.4723C13.2813 12.536 13.2299 12.6453 13.2407 12.7578C13.2512 12.8703 13.3221 12.968 13.4256 13.0131Z" fill="#E6E7E8"/>
<path d="M12.2312 12.3713C12.3774 12.4569 12.5651 12.4097 12.6533 12.2649C12.7413 12.1203 12.6971 11.9318 12.554 11.8413C12.1866 11.6175 11.8316 11.3743 11.4905 11.1126C11.3543 11.0144 11.1649 11.0421 11.0627 11.1753C10.9605 11.3084 10.9827 11.4986 11.1127 11.6048C11.4715 11.8801 11.8449 12.136 12.2312 12.3713Z" fill="#E6E7E8"/>
<path d="M7.63664 7.48909C7.84827 7.88913 8.08117 8.27763 8.33455 8.65281C8.39662 8.74468 8.50305 8.79645 8.6136 8.78863C8.72415 8.7808 8.8222 8.71447 8.87067 8.61477C8.91929 8.51507 8.91091 8.3971 8.84884 8.30523C8.60797 7.94914 8.38646 7.58014 8.18554 7.20015C8.13377 7.10196 8.03352 7.03906 7.9227 7.03494C7.81187 7.03082 7.70723 7.08603 7.64818 7.17996C7.58913 7.2739 7.58473 7.39214 7.63664 7.49033V7.48909Z" fill="#E6E7E8"/>
<path d="M6.49653 1.96767C6.32542 1.97687 6.19414 2.12298 6.20334 2.29423C6.22723 2.74604 6.27543 3.1962 6.34753 3.64293C6.36538 3.75238 6.44023 3.84412 6.54391 3.8834C6.64773 3.92281 6.76446 3.90372 6.85043 3.83368C6.93639 3.76351 6.97828 3.65282 6.96056 3.54337C6.8919 3.11875 6.8459 2.69084 6.82296 2.26127C6.8187 2.17901 6.7819 2.10197 6.72065 2.0469C6.6594 1.99184 6.57879 1.96327 6.49653 1.96767Z" fill="#E6E7E8"/>
<path d="M6.63702 4.96896C6.75732 5.40566 6.90124 5.83536 7.06837 6.25627C7.11519 6.37465 7.22959 6.45251 7.35689 6.45251C7.45975 6.45238 7.55588 6.40143 7.61356 6.31642C7.67137 6.23128 7.68318 6.1232 7.64528 6.02762C7.48667 5.62745 7.34975 5.21917 7.23536 4.80416C7.18784 4.64129 7.01852 4.54681 6.85496 4.59185C6.6914 4.6369 6.59431 4.80485 6.63702 4.96896Z" fill="#E6E7E8"/>
<path d="M16.8269 13.4442C16.7215 13.6304 16.6097 13.8134 16.4887 13.9935C16.3211 13.9656 16.1566 13.9314 15.9953 13.8942C15.884 13.8728 15.7934 13.7924 15.7586 13.6848C15.7239 13.577 15.7505 13.4589 15.8283 13.3766C15.9059 13.2942 16.0222 13.2607 16.1318 13.289C16.3273 13.3324 16.5259 13.3697 16.7245 13.4038C16.7613 13.4093 16.7963 13.4232 16.8269 13.4442Z" fill="#E6E7E8"/>
<path d="M15.2971 5.07623C14.5985 4.20831 13.5993 3.85318 13.0652 4.28302C12.5311 4.713 12.6645 5.76493 13.3629 6.63284C14.0615 7.50076 15.0607 7.85575 15.5948 7.42592C16.1288 6.99608 15.9955 5.94401 15.2971 5.07623Z" fill="#E64C3C"/>
<path d="M11.2212 2.12174C10.7178 2.01751 10.2419 2.25948 10.1586 2.66227C10.0751 3.06505 10.4157 3.47621 10.9192 3.58045C11.4227 3.68468 11.8985 3.44271 11.9819 3.03992C12.0654 2.63714 11.7248 2.22598 11.2212 2.12174Z" fill="#E64C3C"/>
</g>
<defs>
<clipPath id="clip0_27_3770">
<rect width="18" height="18" fill="white"/>
</clipPath>
</defs>
</svg>
