<svg width="18" height="18" viewBox="0 0 18 18" fill="none" xmlns="http://www.w3.org/2000/svg">
<g clip-path="url(#clip0_27_3812)">
<path d="M7.77971 15.2542C11.992 15.2542 15.4068 11.8395 15.4068 7.62712C15.4068 3.41478 11.992 0 7.77971 0C3.56737 0 0.152588 3.41478 0.152588 7.62712C0.152588 11.8395 3.56737 15.2542 7.77971 15.2542Z" fill="#E64C3C"/>
<path d="M7.77961 13.1187C10.8125 13.1187 13.2711 10.66 13.2711 7.62715C13.2711 4.59426 10.8125 2.13562 7.77961 2.13562C4.74673 2.13562 2.28809 4.59426 2.28809 7.62715C2.28809 10.66 4.74673 13.1187 7.77961 13.1187Z" fill="white"/>
<path d="M7.77976 10.983C9.63319 10.983 11.1357 9.48054 11.1357 7.62711C11.1357 5.77368 9.63319 4.27118 7.77976 4.27118C5.92633 4.27118 4.42383 5.77368 4.42383 7.62711C4.42383 9.48054 5.92633 10.983 7.77976 10.983Z" fill="#E64C3C"/>
<path d="M7.77982 9.15253C8.62229 9.15253 9.30524 8.46958 9.30524 7.62711C9.30524 6.78464 8.62229 6.10168 7.77982 6.10168C6.93735 6.10168 6.25439 6.78464 6.25439 7.62711C6.25439 8.46958 6.93735 9.15253 7.77982 9.15253Z" fill="white"/>
<path fill-rule="evenodd" clip-rule="evenodd" d="M10.9288 18C10.9008 18 10.8728 17.9961 10.8458 17.9884C10.6837 17.9428 10.5892 17.7744 10.6347 17.6122L11.719 13.7682C11.7647 13.6059 11.9334 13.5114 12.0956 13.5572C12.2579 13.6029 12.3523 13.7716 12.3066 13.9338L11.2223 17.7779C11.1852 17.9092 11.0653 17.9999 10.9288 18Z" fill="#BDC3C7"/>
<path fill-rule="evenodd" clip-rule="evenodd" d="M13.0455 6.82172L12.8045 1.66579C12.7939 1.42482 12.8904 1.1915 13.0682 1.02846C13.2459 0.865422 13.4867 0.789364 13.7259 0.820706L15.6174 1.07698L17.3625 1.84579C17.5834 1.94424 17.7494 2.1354 17.8159 2.36793C17.8824 2.60045 17.8426 2.85049 17.7072 3.05088L14.8059 7.31901L13.0455 6.82172Z" fill="#BDC3C7"/>
<path fill-rule="evenodd" clip-rule="evenodd" d="M13.9144 7.41751C13.8863 7.41754 13.8584 7.41364 13.8314 7.40592C13.7535 7.38396 13.6876 7.33195 13.648 7.26135C13.6085 7.19074 13.5986 7.10732 13.6206 7.02945L15.5222 0.287072C15.5679 0.124813 15.7366 0.0303602 15.8988 0.0761063C16.0611 0.121852 16.1555 0.290474 16.1098 0.452733L14.2079 7.19511C14.1709 7.32658 14.051 7.41743 13.9144 7.41751Z" fill="#95A5A5"/>
<path fill-rule="evenodd" clip-rule="evenodd" d="M14.6259 7.95965L13.6313 13.7074C13.5388 14.1056 13.283 14.4464 12.9267 14.6466C12.5704 14.8469 12.1463 14.888 11.7581 14.76C11.1061 14.5938 10.6423 14.0169 10.6201 13.3444C10.6203 13.1869 10.6493 13.0308 10.7055 12.8837L12.8655 7.46236L13.8815 7.32202L14.6259 7.95965Z" fill="#3B97D3"/>
<path fill-rule="evenodd" clip-rule="evenodd" d="M14.8729 7.07799L14.8058 7.31901L14.6258 7.95969L12.8655 7.4624L13.0455 6.82172L13.1126 6.58376C13.156 6.4274 13.2599 6.29478 13.4013 6.2152C13.5427 6.13562 13.71 6.11564 13.8662 6.15969L14.4519 6.32748C14.6076 6.37064 14.7396 6.47417 14.8187 6.61508C14.8977 6.75599 14.9173 6.92263 14.8729 7.07799Z" fill="#F3D55B"/>
</g>
<defs>
<clipPath id="clip0_27_3812">
<rect width="18" height="18" fill="white"/>
</clipPath>
</defs>
</svg>
