<svg width="18" height="18" viewBox="0 0 18 18" fill="none" xmlns="http://www.w3.org/2000/svg">
<g clip-path="url(#clip0_27_3826)">
<path d="M8.47266 1.82312H9.52734V5.52753H8.47266V1.82312Z" fill="#DDE4EB"/>
<path d="M9 1.82312H9.52734V5.52753H9V1.82312Z" fill="#B6C1CD"/>
<path d="M7.875 5.19147H10.125V7.44147H7.875V5.19147Z" fill="#5A4E7A"/>
<path d="M9 5.19147H10.125V7.44147H9V5.19147Z" fill="#3D384D"/>
<path d="M7.01533 11.4492L5.29545 14.6862C4.80724 15.6036 3.85282 16.1768 2.8136 16.1768C0.93541 16.1933 -0.398593 14.3432 0.10836 12.5606L1.20446 8.47845L7.01533 11.4492Z" fill="#DDE4EB"/>
<path d="M10.9846 11.4492L12.7045 14.6862C13.1927 15.6036 14.1471 16.1768 15.1864 16.1768C17.0645 16.1933 18.3985 14.3432 17.8916 12.5606L16.7955 8.47845L10.9846 11.4492Z" fill="#B6C1CD"/>
<path d="M16.875 9.19928C16.875 11.0633 15.364 12.5743 13.5 12.5743C12.5005 12.5743 11.6026 12.1397 10.9846 11.4493H7.01543C6.39738 12.1397 5.49949 12.5743 4.5 12.5743C2.63602 12.5743 1.125 11.0633 1.125 9.19928C1.125 7.33529 2.63602 5.82428 4.5 5.82428C5.49949 5.82428 6.39738 6.25881 7.01543 6.94928H10.9846C11.6026 6.25881 12.5005 5.82428 13.5 5.82428C15.364 5.82428 16.875 7.33526 16.875 9.19928Z" fill="#F3F7FA"/>
<path d="M16.875 9.19928C16.875 11.0633 15.364 12.5743 13.5 12.5743C12.5005 12.5743 11.6026 12.1397 10.9846 11.4493H9V6.94928H10.9846C11.6026 6.25881 12.5005 5.82428 13.5 5.82428C15.364 5.82428 16.875 7.33526 16.875 9.19928Z" fill="#DDE4EB"/>
<path d="M8.47266 8.67194H9.52734V9.72662H8.47266V8.67194Z" fill="#FF4284"/>
<path d="M9 8.67194H9.52734V9.72662H9V8.67194Z" fill="#E5006B"/>
<path d="M10.9844 12.7092C11.6802 12.7092 12.2444 12.1451 12.2444 11.4492C12.2444 10.7533 11.6802 10.1892 10.9844 10.1892C10.2885 10.1892 9.72437 10.7533 9.72437 11.4492C9.72437 12.1451 10.2885 12.7092 10.9844 12.7092Z" fill="#3D384D"/>
<path d="M5.947 8.67187H5.02746V7.75232H3.97277V8.67187H3.05322V9.72655H3.97277V10.6461H5.02746V9.72655H5.947V8.67187Z" fill="#5A4E7A"/>
<path d="M7.01537 12.7092C7.71125 12.7092 8.27537 12.1451 8.27537 11.4492C8.27537 10.7533 7.71125 10.1892 7.01537 10.1892C6.31949 10.1892 5.75537 10.7533 5.75537 11.4492C5.75537 12.1451 6.31949 12.7092 7.01537 12.7092Z" fill="#5A4E7A"/>
<path d="M14.947 8.67187H14.0275V7.75232H12.9728V8.67187H12.0532V9.72655H12.9728V10.6461H14.0275V9.72655H14.947V8.67187Z" fill="#3D384D"/>
</g>
<defs>
<clipPath id="clip0_27_3826">
<rect width="18" height="18" fill="white"/>
</clipPath>
</defs>
</svg>
