<svg width="18" height="18" viewBox="0 0 18 18" fill="none" xmlns="http://www.w3.org/2000/svg">
<circle cx="9" cy="9" r="9" fill="white"/>
<g clip-path="url(#clip0_27_3662)">
<path d="M9 0C4.02949 0 0 4.02949 0 9C0 13.9705 4.02949 18 9 18C13.9705 18 18 13.9705 18 9C17.9944 4.03184 13.9682 0.00556643 9 0ZM9.32124 2.59468L12.45 1.34399C12.8051 1.50469 13.1486 1.68984 13.478 1.89814L13.4862 1.90327C13.81 2.10835 14.1193 2.33525 14.4123 2.58237L14.4375 2.60435C14.5689 2.71626 14.6966 2.83213 14.8209 2.95166C14.8365 2.96704 14.8529 2.98169 14.8686 2.99736C14.9988 3.12451 15.125 3.25562 15.247 3.39053C15.2571 3.40195 15.2667 3.41396 15.2769 3.42539C15.3839 3.54536 15.4869 3.66958 15.5868 3.79585C15.6108 3.82588 15.6349 3.85591 15.6582 3.88594C15.7666 4.02627 15.8714 4.16909 15.9705 4.31646L15.3467 6.96782L12.278 7.99087L9.32197 5.62559L9.32124 2.59468ZM2.34155 3.8877C2.36484 3.85767 2.38857 3.82764 2.4126 3.79775C2.51133 3.67251 2.61343 3.55034 2.7189 3.4311C2.73032 3.41851 2.74087 3.40562 2.75215 3.39302C2.87344 3.25781 2.99897 3.12686 3.12905 3C3.14399 2.98535 3.15894 2.96997 3.17461 2.95649C3.2978 2.8377 3.42451 2.72256 3.55474 2.61123L3.58477 2.58604C3.8751 2.34067 4.18154 2.11523 4.50205 1.91104L4.51377 1.90356C4.84131 1.6957 5.18262 1.51084 5.53564 1.35L8.67876 2.59468V5.62471L5.72256 7.98955L2.65386 6.96841L2.03013 4.31704C2.13003 4.16997 2.23374 4.02744 2.34155 3.8877ZM1.98003 13.6036C1.89185 13.4691 1.80747 13.3321 1.72705 13.1925L1.70757 13.1588C1.62759 13.02 1.55186 12.8788 1.48052 12.7354L1.47803 12.7308C1.32773 12.4291 1.19575 12.1185 1.08296 11.8008V11.7979C1.02964 11.6479 0.981006 11.4942 0.936035 11.3396L0.919775 11.2827C0.878613 11.1375 0.84126 10.9907 0.807861 10.8423C0.804932 10.8278 0.80127 10.8141 0.79834 10.7997C0.724658 10.4646 0.671777 10.1253 0.639844 9.78355L2.47134 7.58584L5.5188 8.60156L6.40327 12.1392L4.95 14.0728L1.98003 13.6036ZM10.9978 17.1579C10.8478 17.1951 10.6938 17.2271 10.5398 17.256C10.5183 17.2603 10.4963 17.2638 10.4748 17.2677C10.3437 17.2912 10.2111 17.3112 10.0783 17.3276C10.0428 17.3322 10.0077 17.337 9.97236 17.3413C9.84902 17.3556 9.72451 17.3665 9.59971 17.3754C9.56045 17.378 9.52163 17.382 9.48237 17.3845C9.32285 17.3943 9.16201 17.4 9 17.4C8.85161 17.4 8.7041 17.396 8.55747 17.3883C8.53975 17.3883 8.52275 17.3854 8.50503 17.384C8.37451 17.3766 8.24458 17.3667 8.11494 17.3542L8.1 17.3514C7.81597 17.3206 7.53355 17.2755 7.25405 17.2165L5.47954 14.4381L6.90996 12.5307H11.09L12.5439 14.4507L10.9978 17.1579ZM17.2039 10.8C17.2008 10.8144 17.1973 10.8283 17.1942 10.8426C17.1606 10.9909 17.1233 11.1376 17.0823 11.283L17.0662 11.3399C17.021 11.4945 16.9726 11.6476 16.9191 11.7981V11.8011C16.8063 12.1188 16.6745 12.4293 16.524 12.7311L16.5215 12.7356C16.4498 12.8792 16.3742 13.0204 16.2945 13.1591L16.275 13.1928C16.195 13.3329 16.1108 13.4695 16.0225 13.6033L13.0626 14.07L11.5992 12.138L12.4833 8.60127L15.5307 7.58555L17.3622 9.78325C17.3304 10.1251 17.2775 10.4647 17.2039 10.8Z" fill="black"/>
</g>
<defs>
<clipPath id="clip0_27_3662">
<rect width="18" height="18" fill="white"/>
</clipPath>
</defs>
</svg>
