<svg width="18" height="18" viewBox="0 0 18 18" fill="none" xmlns="http://www.w3.org/2000/svg">
<g clip-path="url(#clip0_27_3844)">
<path d="M9.00005 17.7C13.8049 17.7 17.7001 13.8049 17.7001 8.99999C17.7001 4.19511 13.8049 0.299988 9.00005 0.299988C4.19517 0.299988 0.300049 4.19511 0.300049 8.99999C0.300049 13.8049 4.19517 17.7 9.00005 17.7Z" fill="#D7E8F9"/>
<path d="M13.35 1.46697C13.35 1.46697 12.69 1.90197 11.706 3.28197C11.3559 3.77238 11.0304 4.28001 10.731 4.80297C8.93104 7.91997 9.00004 8.99997 9.00004 8.99997C9.00004 8.99997 8.25604 9.49497 5.41504 9.58497C5.4629 7.81663 5.88557 6.07859 6.6551 4.48575C7.42463 2.89291 8.52349 1.48155 9.87904 0.344971C11.1027 0.467562 12.2861 0.850094 13.35 1.46697Z" fill="#2D629B"/>
<path d="M17.7001 8.99998C17.7015 9.81497 17.5873 10.626 17.3611 11.409C17.021 9.74084 16.3441 8.15965 15.3718 6.76223C14.3994 5.3648 13.152 4.18055 11.7061 3.28198C12.6901 1.90198 13.3501 1.46698 13.3501 1.46698C14.6736 2.22911 15.7727 3.32686 16.5364 4.64946C17.3002 5.97206 17.7015 7.47271 17.7001 8.99998Z" fill="#E3C84C"/>
<path d="M6.90605 0.554993C5.63152 1.68372 4.60062 3.06058 3.8764 4.60135C3.15218 6.14212 2.74987 7.81442 2.69405 9.51599C1.00805 9.35399 0.300049 8.99999 0.300049 8.99999C0.299879 7.0568 0.950266 5.16948 2.14752 3.63892C3.34478 2.10837 5.01998 1.0227 6.90605 0.554993Z" fill="#E3C84C"/>
<path d="M11.2981 11.811C9.74294 12.6538 8.02669 13.1569 6.2627 13.2873C4.49871 13.4176 2.72714 13.1721 1.06506 12.567C0.558962 11.446 0.298144 10.2299 0.300059 9C0.300059 9 1.00806 9.354 2.69406 9.516C3.20406 9.567 3.80406 9.6 4.50006 9.6C4.82706 9.6 5.13306 9.594 5.41506 9.585C8.25606 9.495 9.00006 9 9.00006 9C9.00006 9 9.80106 9.396 11.2981 11.811Z" fill="#3778C6"/>
<path d="M13.35 16.533C11.6686 17.5049 9.71014 17.8859 7.78698 17.6151C5.86382 17.3443 4.0867 16.4374 2.73901 15.039C4.35325 15.5772 6.06027 15.7805 7.75576 15.6366C9.45125 15.4927 11.0996 15.0046 12.6 14.202C13.302 15.744 13.35 16.533 13.35 16.533Z" fill="#E3C84C"/>
<path d="M16.0561 14.088C15.3372 15.0852 14.4149 15.9186 13.3501 16.533C13.3501 16.533 13.3021 15.744 12.6001 14.202C12.3901 13.737 12.1171 13.2 11.7691 12.597C11.6041 12.315 11.4481 12.051 11.2981 11.811C9.8011 9.396 9.0001 9 9.0001 9C9.0001 9 8.9431 8.1 10.2991 5.577C11.8036 6.51059 13.0941 7.75128 14.0862 9.21791C15.0782 10.6845 15.7495 12.3441 16.0561 14.088Z" fill="#22517C"/>
</g>
<defs>
<clipPath id="clip0_27_3844">
<rect width="18" height="18" fill="white"/>
</clipPath>
</defs>
</svg>
