<svg width="18" height="18" viewBox="0 0 18 18" fill="none" xmlns="http://www.w3.org/2000/svg">
<g clip-path="url(#clip0_27_3854)">
<path d="M11.1094 4.78125H16.1691V5.625H15.0469H11.1094V4.78125Z" fill="#434A54"/>
<path d="M8.85656 2.25C9.32344 2.25 9.70031 2.62688 9.70031 3.09375V6.46875C9.70031 7.39969 8.94628 8.15344 8.01562 8.15344V2.25H8.85656Z" fill="#434A54"/>
<path d="M17.2969 16.0312C17.2969 16.9594 16.5347 17.7188 15.6094 17.7188H11.6719C10.7438 17.7188 9.98438 16.9594 9.98438 16.0312C9.98438 14.3212 11.3681 12.9375 13.0781 12.9375H14.2031C15.9131 12.9375 17.2969 14.3212 17.2969 16.0312Z" fill="#656D78"/>
<path d="M11.1094 5.625H15.0469V7.03125H11.1094V5.625Z" fill="#AAB2BD"/>
<path d="M9.98449 9.84656V15.75H9.14355C8.67668 15.75 8.2998 15.3731 8.2998 14.9062V11.5312C8.2998 10.6 9.05355 9.84656 9.98449 9.84656Z" fill="#434A54"/>
<path d="M8.01562 2.25V8.15344V8.99719C8.01562 9.61875 7.51219 10.1222 6.89062 10.1222H5.20312V7.59375C5.20312 7.12969 4.82625 6.75 4.35938 6.75C3.89531 6.75 3.51562 7.12969 3.51562 7.59375V10.1222H1.83094V10.125C1.20938 10.125 0.703125 9.62156 0.703125 8.99719V1.96875C0.703125 3.67875 2.08687 5.0625 3.79688 5.0625H4.92188C6.63188 5.0625 8.01562 3.67875 8.01562 1.96875V2.25Z" fill="#545C66"/>
<path d="M6.89074 10.1222V10.9688H2.95324H1.83105V10.125V10.1222H3.51574H4.35949H5.20324H6.89074Z" fill="#434A54"/>
<path d="M2.95312 10.9688H6.89062V12.375H2.95312V10.9688Z" fill="#AAB2BD"/>
<path d="M2.95324 12.375H6.89074V13.2188H1.83105V12.375H2.95324Z" fill="#434A54"/>
<path d="M8.01562 1.96875C8.01562 3.67875 6.63188 5.0625 4.92188 5.0625H3.79688C2.08687 5.0625 0.703125 3.67875 0.703125 1.96875C0.703125 1.04063 1.46531 0.28125 2.39062 0.28125H6.32812C7.25625 0.28125 8.01562 1.04063 8.01562 1.96875Z" fill="#656D78"/>
<path d="M1.83105 10.9688H2.95324V12.375H1.83105V10.9688Z" fill="#545C66"/>
<path d="M16.1691 7.875V7.87781H14.4844H13.6406H12.7969H11.1094V7.03125H15.0469H16.1691V7.875Z" fill="#434A54"/>
<path d="M14.4844 10.4062C14.4844 10.8703 14.1047 11.25 13.6406 11.25C13.1738 11.25 12.7969 10.8703 12.7969 10.4062V7.87781H13.6406H14.4844V10.4062Z" fill="#656D78"/>
<path d="M15.0469 5.625H16.1691V7.03125H15.0469V5.625Z" fill="#545C66"/>
<path d="M9.98438 15.75V9.84656V9.00281C9.98438 8.38125 10.4878 7.87781 11.1094 7.87781H12.7969V10.4062C12.7969 10.8703 13.1737 11.25 13.6406 11.25C14.1047 11.25 14.4844 10.8703 14.4844 10.4062V7.87781H16.1691V7.875C16.7906 7.875 17.2969 8.37844 17.2969 9.00281V16.0312C17.2969 14.3212 15.9131 12.9375 14.2031 12.9375H13.0781C11.3681 12.9375 9.98438 14.3212 9.98438 16.0312V15.75Z" fill="#545C66"/>
<path d="M4.35938 6.75C4.82625 6.75 5.20312 7.12969 5.20312 7.59375V10.1222H4.35938H3.51562V7.59375C3.51562 7.12969 3.89531 6.75 4.35938 6.75Z" fill="#656D78"/>
<path d="M8.01484 9.27901C7.85931 9.27901 7.73359 9.15301 7.73359 8.99776V1.9696C7.73359 1.1942 7.10275 0.563354 6.32734 0.563354H2.39209C1.61668 0.563354 0.98584 1.1942 0.98584 1.9696V8.99776C0.98584 9.15301 0.860121 9.27901 0.70459 9.27901C0.549059 9.27901 0.42334 9.15301 0.42334 8.99776V1.9696C0.42334 0.883979 1.30675 0.000854492 2.39209 0.000854492H6.32734C7.41268 0.000854492 8.29609 0.883979 8.29609 1.9696V8.99776C8.29609 9.15301 8.17037 9.27901 8.01484 9.27901Z" fill="black"/>
<path d="M6.89037 13.4992H1.82983C1.6743 13.4992 1.54858 13.3734 1.54858 13.2179V10.1219C1.54858 9.96639 1.6743 9.84067 1.82983 9.84067H6.89037C7.0459 9.84067 7.17162 9.96639 7.17162 10.1219V13.2179C7.17162 13.3734 7.0459 13.4992 6.89037 13.4992ZM2.11108 12.9367H6.60912V10.4032H2.11108V12.9367Z" fill="black"/>
<path d="M3.79834 5.3446C1.93731 5.3446 0.42334 3.83064 0.42334 1.9696C0.42334 1.81435 0.549059 1.68835 0.70459 1.68835C0.860121 1.68835 0.98584 1.81435 0.98584 1.9696C0.98584 3.52042 2.24753 4.7821 3.79834 4.7821C3.95387 4.7821 4.07959 4.9081 4.07959 5.06335C4.07959 5.2186 3.95387 5.3446 3.79834 5.3446Z" fill="black"/>
<path d="M4.92114 5.3446C4.76561 5.3446 4.63989 5.2186 4.63989 5.06335C4.63989 4.9081 4.76561 4.7821 4.92114 4.7821C6.47196 4.7821 7.73364 3.52042 7.73364 1.9696C7.73364 1.81435 7.85936 1.68835 8.01489 1.68835C8.17042 1.68835 8.29614 1.81435 8.29614 1.9696C8.29614 3.83064 6.78217 5.3446 4.92114 5.3446Z" fill="black"/>
<path d="M4.92109 5.3446H3.79834C3.64281 5.3446 3.51709 5.2186 3.51709 5.06335C3.51709 4.9081 3.64281 4.7821 3.79834 4.7821H4.92109C5.07662 4.7821 5.20234 4.9081 5.20234 5.06335C5.20234 5.2186 5.07662 5.3446 4.92109 5.3446Z" fill="black"/>
<path d="M1.8324 10.4071C1.05531 10.4071 0.42334 9.77487 0.42334 8.99777C0.42334 8.84252 0.549059 8.71652 0.70459 8.71652C0.860121 8.71652 0.98584 8.84252 0.98584 8.99777C0.98584 9.46465 1.36581 9.84462 1.8324 9.84462C1.98793 9.84462 2.11365 9.97033 2.11365 10.1259C2.11365 10.2814 1.98765 10.4071 1.8324 10.4071Z" fill="black"/>
<path d="M6.89038 10.4037C6.73485 10.4037 6.60913 10.278 6.60913 10.1225C6.60913 9.96696 6.73485 9.84124 6.89038 9.84124C7.35529 9.84124 7.73357 9.46268 7.73357 8.99777C7.73357 8.84252 7.85929 8.71652 8.01482 8.71652C8.17035 8.71652 8.29607 8.84252 8.29607 8.99777C8.29607 9.77318 7.66551 10.4037 6.89038 10.4037Z" fill="black"/>
<path d="M8.01538 8.43469C7.85985 8.43469 7.73413 8.30869 7.73413 8.15344C7.73413 7.99819 7.85985 7.87219 8.01538 7.87219C8.78966 7.87219 9.41938 7.24248 9.41938 6.46848C9.41938 6.31323 9.5451 6.18723 9.70063 6.18723C9.85616 6.18723 9.98188 6.31323 9.98188 6.46848C9.98188 7.55269 9.0996 8.43469 8.01538 8.43469Z" fill="black"/>
<path d="M9.70057 3.37388C9.54504 3.37388 9.41932 3.24788 9.41932 3.09263C9.41932 2.78298 9.16732 2.53098 8.85767 2.53098C8.70213 2.53098 8.57642 2.40498 8.57642 2.24973C8.57642 2.09448 8.70213 1.96848 8.85767 1.96848C9.47754 1.96848 9.98182 2.47276 9.98182 3.09263C9.98182 3.24788 9.8561 3.37388 9.70057 3.37388Z" fill="black"/>
<path d="M9.70068 6.74971C9.54515 6.74971 9.41943 6.62371 9.41943 6.46846V3.09262C9.41943 2.93737 9.54515 2.81137 9.70068 2.81137C9.85621 2.81137 9.98193 2.93737 9.98193 3.09262V6.46846C9.98193 6.62371 9.85621 6.74971 9.70068 6.74971Z" fill="black"/>
<path d="M4.3606 10.4032C4.20506 10.4032 4.07935 10.2775 4.07935 10.1219V7.59433C4.07935 7.43908 4.20506 7.31308 4.3606 7.31308C4.51613 7.31308 4.64185 7.43908 4.64185 7.59433V10.1219C4.64185 10.2775 4.51613 10.4032 4.3606 10.4032Z" fill="black"/>
<path d="M5.20435 7.87531C5.04881 7.87531 4.9231 7.74931 4.9231 7.59406C4.9231 7.28384 4.67081 7.03156 4.3606 7.03156C4.05038 7.03156 3.7981 7.28384 3.7981 7.59406C3.7981 7.74931 3.67238 7.87531 3.51685 7.87531C3.36131 7.87531 3.2356 7.74931 3.2356 7.59406C3.2356 6.97362 3.74016 6.46906 4.3606 6.46906C4.98103 6.46906 5.4856 6.97362 5.4856 7.59406C5.4856 7.74931 5.35988 7.87531 5.20435 7.87531Z" fill="black"/>
<path d="M3.51685 10.4032C3.36131 10.4032 3.2356 10.2775 3.2356 10.1219V7.59406C3.2356 7.43881 3.36131 7.31281 3.51685 7.31281C3.67238 7.31281 3.7981 7.43881 3.7981 7.59406V10.1219C3.7981 10.2775 3.67238 10.4032 3.51685 10.4032Z" fill="black"/>
<path d="M5.20435 10.4032C5.04881 10.4032 4.9231 10.2775 4.9231 10.1219V7.59406C4.9231 7.43881 5.04881 7.31281 5.20435 7.31281C5.35988 7.31281 5.4856 7.43881 5.4856 7.59406V10.1219C5.4856 10.2775 5.35988 10.4032 5.20435 10.4032Z" fill="black"/>
<path d="M2.95435 12.6566H1.82935C1.67381 12.6566 1.5481 12.5308 1.5481 12.3753V10.9691C1.5481 10.8135 1.67381 10.6878 1.82935 10.6878H2.95435C3.10988 10.6878 3.2356 10.8135 3.2356 10.9691V12.3753C3.2356 12.5308 3.10988 12.6566 2.95435 12.6566ZM2.1106 12.0941H2.6731V11.2503H2.1106V12.0941Z" fill="black"/>
<path d="M6.89044 12.6566H2.95435C2.79881 12.6566 2.6731 12.5308 2.6731 12.3753V10.9691C2.6731 10.8135 2.79881 10.6878 2.95435 10.6878H6.89044C7.04597 10.6878 7.17169 10.8135 7.17169 10.9691V12.3753C7.17169 12.5308 7.04597 12.6566 6.89044 12.6566ZM3.2356 12.0941H6.60919V11.2503H3.2356V12.0941Z" fill="black"/>
<path d="M15.6081 17.9992L11.6729 17.9989C10.5875 17.9989 9.7041 17.1155 9.7041 16.0301V9.00226C9.7041 8.84701 9.82982 8.72101 9.98535 8.72101C10.1409 8.72101 10.2666 8.84701 10.2666 9.00226V16.0301C10.2666 16.8055 10.8974 17.4364 11.6729 17.4364L15.6081 17.4367C16.3835 17.4367 17.0144 16.8058 17.0144 16.0304V9.00226C17.0144 8.84701 17.1401 8.72101 17.2956 8.72101C17.4511 8.72101 17.5769 8.84701 17.5769 9.00226V16.0304C17.5769 17.1158 16.6934 17.9992 15.6081 17.9992Z" fill="black"/>
<path d="M16.1704 8.15908H11.1099C10.9543 8.15908 10.8286 8.03308 10.8286 7.87783V4.78183C10.8286 4.62658 10.9543 4.50058 11.1099 4.50058H16.1704C16.3259 4.50058 16.4516 4.62658 16.4516 4.78183V7.87783C16.4516 8.03308 16.3259 8.15908 16.1704 8.15908ZM11.3911 7.59658H15.8891V5.06308H11.3911V7.59658Z" fill="black"/>
<path d="M17.2957 16.3117C17.1401 16.3117 17.0144 16.186 17.0144 16.0304C17.0144 14.4793 15.7527 13.2177 14.2019 13.2177C14.0464 13.2177 13.9207 13.0919 13.9207 12.9364C13.9207 12.7809 14.0464 12.6552 14.2019 12.6552C16.0629 12.6552 17.5769 14.1694 17.5769 16.0304C17.5769 16.186 17.4512 16.3117 17.2957 16.3117Z" fill="black"/>
<path d="M9.98535 16.3114C9.82982 16.3114 9.7041 16.1857 9.7041 16.0302C9.7041 14.1691 11.2181 12.6552 13.0791 12.6552C13.2346 12.6552 13.3604 12.7809 13.3604 12.9364C13.3604 13.0919 13.2346 13.2177 13.0791 13.2177C11.5283 13.2177 10.2666 14.4793 10.2666 16.0302C10.2666 16.1857 10.1409 16.3114 9.98535 16.3114Z" fill="black"/>
<path d="M14.2019 13.2177H13.0791C12.9236 13.2177 12.7979 13.0919 12.7979 12.9364C12.7979 12.7809 12.9236 12.6552 13.0791 12.6552H14.2019C14.3574 12.6552 14.4831 12.7809 14.4831 12.9364C14.4831 13.0919 14.3574 13.2177 14.2019 13.2177Z" fill="black"/>
<path d="M17.2955 9.28353C17.14 9.28353 17.0143 9.15753 17.0143 9.00228C17.0143 8.53512 16.6343 8.15515 16.1677 8.15515C16.0122 8.15515 15.8865 8.02915 15.8865 7.8739C15.8865 7.71865 16.0122 7.59265 16.1677 7.59265C16.9448 7.59265 17.5768 8.2249 17.5768 9.00228C17.5768 9.15753 17.4511 9.28353 17.2955 9.28353Z" fill="black"/>
<path d="M9.98535 9.28351C9.82982 9.28351 9.7041 9.15751 9.7041 9.00226C9.7041 8.22685 10.3347 7.59601 11.1098 7.59601C11.2653 7.59601 11.391 7.72201 11.391 7.87726C11.391 8.03251 11.2653 8.15851 11.1098 8.15851C10.6449 8.15851 10.2666 8.53707 10.2666 9.00226C10.2666 9.15751 10.1409 9.28351 9.98535 9.28351Z" fill="black"/>
<path d="M8.29956 11.8125C8.14403 11.8125 8.01831 11.6868 8.01831 11.5313C8.01831 10.4473 8.90059 9.56506 9.98481 9.56506C10.1403 9.56506 10.2661 9.69078 10.2661 9.84631C10.2661 10.0018 10.1403 10.1276 9.98481 10.1276C9.21053 10.1276 8.58081 10.7573 8.58081 11.5313C8.58081 11.6868 8.45509 11.8125 8.29956 11.8125Z" fill="black"/>
<path d="M9.14247 16.0313C8.52259 16.0313 8.01831 15.527 8.01831 14.9071C8.01831 14.7516 8.14403 14.6259 8.29956 14.6259C8.45509 14.6259 8.58081 14.7516 8.58081 14.9071C8.58081 15.217 8.83281 15.4688 9.14247 15.4688C9.298 15.4688 9.42372 15.5945 9.42372 15.75C9.42372 15.9055 9.298 16.0313 9.14247 16.0313Z" fill="black"/>
<path d="M8.29956 15.1884C8.14403 15.1884 8.01831 15.0627 8.01831 14.9071V11.5313C8.01831 11.3757 8.14403 11.25 8.29956 11.25C8.45509 11.25 8.58081 11.3757 8.58081 11.5313V14.9071C8.58081 15.0627 8.45509 15.1884 8.29956 15.1884Z" fill="black"/>
<path d="M13.6396 10.687C13.4841 10.687 13.3584 10.5612 13.3584 10.4057V7.87784C13.3584 7.72259 13.4841 7.59659 13.6396 7.59659C13.7952 7.59659 13.9209 7.72259 13.9209 7.87784V10.4057C13.9209 10.5612 13.7952 10.687 13.6396 10.687Z" fill="black"/>
<path d="M13.6396 11.5307C13.0192 11.5307 12.5146 11.0261 12.5146 10.4057C12.5146 10.2502 12.6404 10.1245 12.7959 10.1245C12.9514 10.1245 13.0771 10.2502 13.0771 10.4057C13.0771 10.7159 13.3294 10.9682 13.6396 10.9682C13.9499 10.9682 14.2021 10.7159 14.2021 10.4057C14.2021 10.2502 14.3279 10.1245 14.4834 10.1245C14.6389 10.1245 14.7646 10.2502 14.7646 10.4057C14.7646 11.0261 14.2601 11.5307 13.6396 11.5307Z" fill="black"/>
<path d="M14.4834 10.687C14.3279 10.687 14.2021 10.5612 14.2021 10.4057V7.87784C14.2021 7.72259 14.3279 7.59659 14.4834 7.59659C14.6389 7.59659 14.7646 7.72259 14.7646 7.87784V10.4057C14.7646 10.5612 14.6389 10.687 14.4834 10.687Z" fill="black"/>
<path d="M12.7959 10.687C12.6404 10.687 12.5146 10.5612 12.5146 10.4057V7.87784C12.5146 7.72259 12.6404 7.59659 12.7959 7.59659C12.9514 7.59659 13.0771 7.72259 13.0771 7.87784V10.4057C13.0771 10.5612 12.9514 10.687 12.7959 10.687Z" fill="black"/>
<path d="M16.1709 7.31195H15.0459C14.8904 7.31195 14.7646 7.18595 14.7646 7.0307V5.62445C14.7646 5.4692 14.8904 5.3432 15.0459 5.3432H16.1709C16.3264 5.3432 16.4521 5.4692 16.4521 5.62445V7.0307C16.4521 7.18595 16.3264 7.31195 16.1709 7.31195ZM15.3271 6.74945H15.8896V5.9057H15.3271V6.74945Z" fill="black"/>
<path d="M15.046 7.31195H11.1099C10.9543 7.31195 10.8286 7.18595 10.8286 7.0307V5.62445C10.8286 5.4692 10.9543 5.3432 11.1099 5.3432H15.046C15.2015 5.3432 15.3272 5.4692 15.3272 5.62445V7.0307C15.3272 7.18595 15.2015 7.31195 15.046 7.31195ZM11.3911 6.74945H14.7647V5.9057H11.3911V6.74945Z" fill="black"/>
<path d="M8.8578 2.53098H8.01489C7.85936 2.53098 7.73364 2.40498 7.73364 2.24973C7.73364 2.09448 7.85936 1.96848 8.01489 1.96848H8.8578C9.01333 1.96848 9.13905 2.09448 9.13905 2.24973C9.13905 2.40498 9.01333 2.53098 8.8578 2.53098Z" fill="black"/>
<path d="M9.98468 16.0312H9.14233C8.9868 16.0312 8.86108 15.9055 8.86108 15.75C8.86108 15.5945 8.9868 15.4688 9.14233 15.4688H9.98468C10.1402 15.4688 10.2659 15.5945 10.2659 15.75C10.2659 15.9055 10.1402 16.0312 9.98468 16.0312Z" fill="black"/>
</g>
<defs>
<clipPath id="clip0_27_3854">
<rect width="18" height="18" fill="white"/>
</clipPath>
</defs>
</svg>
