<svg width="18" height="18" viewBox="0 0 18 18" fill="none" xmlns="http://www.w3.org/2000/svg">
<g clip-path="url(#clip0_27_3673)">
<path d="M17.8593 9.14063C17.8612 10.2835 17.6404 11.4158 17.2092 12.4743C17.122 12.6916 17.0258 12.904 16.9205 13.1116C15.9755 14.9918 14.3942 16.4758 12.4579 17.2998C12.2979 17.3671 12.1345 17.4313 11.9707 17.4884C10.442 18.0314 8.7937 18.1447 7.20515 17.8158C5.6166 17.487 4.1487 16.7287 2.96125 15.6234C2.85704 15.525 2.75411 15.4247 2.65553 15.3219C1.52894 14.1653 0.739655 12.723 0.372867 11.1505C0.00607984 9.57815 0.075723 7.93543 0.574279 6.39971C0.62856 6.22815 0.690014 6.05813 0.755686 5.89233C1.55786 3.86288 3.07901 2.19972 5.029 1.22007C5.22756 1.12008 5.43048 1.02713 5.63762 0.942896C7.65017 0.119102 9.89508 0.0626575 11.9465 0.784271C12.0993 0.837146 12.2494 0.894239 12.398 0.957099C13.4345 1.38736 14.3792 2.01157 15.1816 2.79619C15.2844 2.89463 15.3845 2.99771 15.4831 3.10191C16.2474 3.922 16.8491 4.87967 17.2563 5.92411C17.315 6.0698 17.3679 6.21844 17.4164 6.3699C17.7106 7.26401 17.8601 8.19936 17.8593 9.14063Z" fill="#DE7A24"/>
<path d="M14.8759 7.37451C15.9557 8.91931 16.7464 10.6472 17.2094 12.4743C17.1222 12.6916 17.026 12.904 16.9207 13.1116C16.5028 11.1831 15.7149 9.35401 14.6004 7.72565C13.9373 8.65589 13.4644 10.0305 13.1929 11.8178C13.1729 12.0569 12.8857 15.4516 12.4584 17.2993C12.2983 17.3665 12.1349 17.4307 11.9711 17.4878C12.4326 15.7582 12.7628 11.8164 12.7656 11.7749C12.7656 11.7693 12.767 11.765 12.767 11.7609C13.06 9.82898 13.5887 8.35003 14.3374 7.35932C13.8995 6.76673 13.4185 6.20726 12.8982 5.68546L2.9614 15.6234C2.8572 15.525 2.75426 15.4247 2.65568 15.3219L12.5924 5.38678C12.0565 4.87879 11.4865 4.40805 10.8863 3.97786C10.3314 4.36706 9.72365 4.67487 9.08154 4.89192C8.22187 5.19048 7.32611 5.37261 6.41811 5.43346C4.95476 5.53921 2.32409 5.80204 0.57373 6.39942C0.628012 6.22786 0.689465 6.05784 0.755137 5.89204C2.53854 5.3505 4.99048 5.10623 6.38661 5.0061C7.2562 4.94814 8.11408 4.77371 8.93726 4.48748C9.49323 4.29814 10.0229 4.03886 10.5134 3.71587C8.8385 2.58152 6.98441 1.73757 5.02901 1.2195C5.22757 1.11951 5.4305 1.02656 5.63764 0.942324C7.50363 1.49856 9.27121 2.34309 10.8763 3.44531C12.0295 2.48217 12.0594 1.40625 11.9466 0.784683C12.0995 0.837558 12.2495 0.894652 12.3982 0.957511C12.4639 1.65346 12.3324 2.73656 11.2335 3.70251C11.8172 4.1255 12.3724 4.58648 12.8954 5.08246L15.1817 2.79618C15.2845 2.89462 15.3846 2.9977 15.4832 3.1019L13.2012 5.38256C13.7114 5.89505 14.1851 6.44272 14.6187 7.02154C15.5517 6.01129 16.5906 5.87545 17.2565 5.92467C17.3151 6.07036 17.368 6.219 17.4165 6.37045C16.8207 6.27707 15.7989 6.327 14.8759 7.37451Z" fill="#16253D"/>
</g>
<defs>
<clipPath id="clip0_27_3673">
<rect width="18" height="18" fill="white"/>
</clipPath>
</defs>
</svg>
