<svg width="18" height="18" viewBox="0 0 18 18" fill="none" xmlns="http://www.w3.org/2000/svg">
<g clip-path="url(#clip0_27_3963)">
<path d="M9.50439 5.72796C10.254 4.28539 11.7619 3.29999 13.5 3.29999C15.9853 3.29999 18 5.31472 18 7.79999C18 10.2853 15.9853 12.3 13.5 12.3C13.3295 12.3 13.1613 12.2905 12.9957 12.272L9.50439 5.72796Z" fill="#D2DCF1"/>
<path d="M13.5 3.30002C13.38 3.30002 13.2612 3.30516 13.1436 3.3144C15.4604 3.49798 17.2833 5.43604 17.2833 7.80002C17.2833 10.1644 15.4597 12.1028 13.1423 12.2857C13.2604 12.295 13.3796 12.3 13.5 12.3C15.9852 12.3 18 10.2853 18 7.80002C18 5.31471 15.9852 3.30002 13.5 3.30002Z" fill="#B5C3EB"/>
<path d="M18 7.80002C18 6.49605 17.4451 5.32181 16.5589 4.49997H10.4413C10.0629 4.85092 9.74455 5.26582 9.50439 5.72799L12.3704 11.1001H16.5588C17.4451 10.2783 18 9.10402 18 7.80002Z" fill="#6BA9DE"/>
<path d="M17.9969 7.64181C17.996 7.61534 17.9951 7.58886 17.9938 7.5625C17.993 7.54725 17.9918 7.53207 17.9909 7.51686C17.9894 7.49281 17.988 7.46877 17.9861 7.44483C17.9849 7.42878 17.9833 7.41285 17.9819 7.39687C17.9798 7.37388 17.9778 7.35084 17.9754 7.32792C17.9737 7.31158 17.9717 7.29536 17.9699 7.27906C17.9673 7.25661 17.9647 7.23419 17.9618 7.21184C17.9597 7.19558 17.9573 7.17939 17.955 7.16316C17.9518 7.14086 17.9486 7.11855 17.9452 7.09634C17.9427 7.08037 17.9399 7.06451 17.9373 7.04861C17.9335 7.0263 17.9297 7.00403 17.9256 6.98182C17.9228 6.96622 17.9197 6.95068 17.9167 6.93514C17.9123 6.91272 17.9079 6.89034 17.9032 6.86803C17.9 6.85289 17.8967 6.83782 17.8933 6.82276C17.8883 6.80019 17.8832 6.7777 17.8779 6.75525C17.8744 6.74055 17.8708 6.72591 17.8672 6.71128C17.8615 6.68854 17.8558 6.66583 17.8497 6.64323C17.846 6.62921 17.8422 6.6152 17.8384 6.60122C17.832 6.578 17.8254 6.5549 17.8186 6.53182C17.8148 6.51861 17.8108 6.50542 17.8069 6.49224C17.7996 6.46848 17.7922 6.44487 17.7847 6.42129C17.7807 6.40898 17.7767 6.39666 17.7727 6.38442C17.7646 6.35997 17.7562 6.33564 17.7477 6.31137C17.7438 6.30014 17.7399 6.28892 17.7359 6.27776C17.7267 6.2523 17.7173 6.22695 17.7077 6.2017C17.704 6.19196 17.7003 6.18222 17.6966 6.17251C17.6861 6.14549 17.6753 6.11862 17.6643 6.09186C17.6611 6.08407 17.6579 6.07621 17.6547 6.06846C17.6426 6.03938 17.6301 6.01051 17.6174 5.98176C17.615 5.97636 17.6127 5.97093 17.6103 5.96557C17.5958 5.93319 17.5809 5.90099 17.5657 5.86901C17.565 5.86738 17.5642 5.86572 17.5634 5.86409C17.3826 5.48525 17.1503 5.13565 16.8756 4.82432C16.8755 4.82414 16.8753 4.82396 16.8751 4.82378C16.8504 4.79575 16.8253 4.76801 16.7999 4.74059C16.7995 4.74019 16.7991 4.73983 16.7988 4.73943C16.7735 4.71212 16.7478 4.68514 16.7218 4.65849C16.7215 4.65816 16.7211 4.6578 16.7208 4.65747C16.6947 4.63074 16.6683 4.60434 16.6415 4.57826C16.6413 4.57805 16.6411 4.57779 16.6408 4.57758C16.6139 4.55132 16.5866 4.52542 16.559 4.49982H15.8423C16.7286 5.32162 17.2834 6.49586 17.2834 7.79987C17.2834 9.10391 16.7286 10.2781 15.8423 11.1H16.559C16.5865 11.0744 16.6138 11.0485 16.6407 11.0223C16.6409 11.022 16.6412 11.0218 16.6414 11.0215C16.6681 10.9955 16.6946 10.9691 16.7207 10.9423C16.721 10.942 16.7213 10.9416 16.7216 10.9413C16.7476 10.9147 16.7733 10.8876 16.7987 10.8604C16.799 10.86 16.7994 10.8596 16.7997 10.8592C16.8252 10.8318 16.8502 10.8041 16.8749 10.7761C16.8751 10.7759 16.8753 10.7757 16.8755 10.7755C17.1502 10.4642 17.3825 10.1146 17.5634 9.73579C17.5642 9.73409 17.5649 9.73238 17.5658 9.73068C17.5809 9.69877 17.5958 9.66665 17.6102 9.63431C17.6127 9.62888 17.615 9.62341 17.6174 9.61794C17.6301 9.58922 17.6426 9.56042 17.6547 9.53138C17.6579 9.52356 17.6611 9.51562 17.6643 9.50776C17.6753 9.48107 17.686 9.45431 17.6965 9.42736C17.7003 9.41758 17.704 9.40777 17.7077 9.39795C17.7173 9.37271 17.7267 9.34743 17.7359 9.32201C17.7399 9.31085 17.7438 9.29966 17.7477 9.28847C17.7562 9.26417 17.7646 9.23983 17.7727 9.21535C17.7767 9.20307 17.7807 9.19075 17.7847 9.17844C17.7922 9.1549 17.7996 9.13129 17.8068 9.1076C17.8108 9.09442 17.8148 9.08116 17.8186 9.0679C17.8254 9.04487 17.832 9.02176 17.8384 8.99855C17.8422 8.98461 17.846 8.97059 17.8497 8.95657C17.8557 8.93394 17.8615 8.91123 17.8672 8.88845C17.8708 8.87382 17.8744 8.85918 17.8779 8.84452C17.8832 8.8221 17.8883 8.79961 17.8933 8.77708C17.8967 8.76198 17.9 8.74687 17.9032 8.7317C17.9079 8.70946 17.9124 8.68715 17.9167 8.66481C17.9197 8.6492 17.9228 8.63359 17.9257 8.61791C17.9297 8.59578 17.9335 8.57358 17.9373 8.55134C17.94 8.5354 17.9427 8.51943 17.9452 8.50342C17.9487 8.48126 17.9519 8.45895 17.955 8.43667C17.9573 8.42045 17.9597 8.40426 17.9618 8.388C17.9648 8.36562 17.9673 8.34312 17.9699 8.32063C17.9718 8.30441 17.9738 8.28822 17.9755 8.27196C17.9779 8.24907 17.9799 8.22603 17.9819 8.20304C17.9833 8.18703 17.9849 8.17106 17.9862 8.15498C17.9881 8.13111 17.9895 8.10713 17.9909 8.08316C17.9919 8.06787 17.993 8.05266 17.9938 8.03734C17.9952 8.01101 17.9961 7.98454 17.997 7.9581C17.9974 7.94502 17.9982 7.93202 17.9985 7.91891C17.9995 7.87933 18.0001 7.83967 18.0001 7.79983C18.0001 7.76003 17.9995 7.72033 17.9985 7.68075C17.9981 7.66785 17.9974 7.65485 17.9969 7.64181Z" fill="#5E92D1"/>
<path d="M11.5071 6.46249C11.938 5.82166 12.6698 5.40005 13.5001 5.40005C14.8256 5.40005 15.9001 6.47455 15.9001 7.80003C15.9001 9.12551 14.8256 10.2 13.5001 10.2L11.5071 6.46249Z" fill="#D2DCF1"/>
<path d="M13.5174 5.40005C13.3898 5.40005 13.2646 5.41023 13.1423 5.42943C14.2896 5.6095 15.1673 6.60218 15.1673 7.80007C15.1673 8.99792 14.2896 9.99063 13.1423 10.1707C13.2646 10.1899 13.3898 10.2001 13.5174 10.2001C14.8428 10.2001 15.9173 9.12558 15.9173 7.8001C15.9173 6.47462 14.8428 5.40005 13.5174 5.40005Z" fill="#B5C3EB"/>
<path d="M14.1 6.02835C13.5367 6.02835 13.0784 6.48664 13.0784 7.05V8.55005C13.0784 9.11341 13.5367 9.57171 14.1 9.57171C14.6633 9.57171 15.1216 9.11341 15.1216 8.55005V7.05C15.1216 6.48668 14.6633 6.02835 14.1 6.02835ZM14.5784 8.55005C14.5784 8.81382 14.3638 9.02845 14.1 9.02845C13.8363 9.02845 13.6216 8.81382 13.6216 8.55005V7.05C13.6216 6.78623 13.8363 6.57161 14.1 6.57161C14.3638 6.57161 14.5784 6.78623 14.5784 7.05V8.55005Z" fill="#464656"/>
<path d="M12.6 6.02838C12.45 6.02838 12.3284 6.14996 12.3284 6.30001V8.69999C12.3284 8.85004 12.45 8.97162 12.6 8.97162C12.75 8.97162 12.8716 8.85004 12.8716 8.69999V6.30001C12.8716 6.15 12.75 6.02838 12.6 6.02838Z" fill="#464656"/>
<path d="M5.00436 12.2721C4.83878 12.2905 4.67051 12.3 4.5 12.3C2.01473 12.3 0 10.2853 0 7.79999C0 5.31468 2.01473 3.29999 4.5 3.29999C6.23807 3.29999 7.74598 4.28535 8.4956 5.72789L5.00436 12.2721Z" fill="#FFDD5F"/>
<path d="M4.49986 3.29999C4.37799 3.29999 4.25735 3.30506 4.13794 3.31455C6.45375 3.49911 8.27555 5.43674 8.27555 7.80002C8.27555 10.1627 6.45465 12.0999 4.13968 12.2853C4.25854 12.2947 4.37857 12.3 4.49986 12.3C6.98513 12.3 8.99986 10.2853 8.99986 7.80002C8.99986 5.31472 6.98513 3.29999 4.49986 3.29999Z" fill="#FFBC47"/>
<path d="M4.50007 10.2C3.17459 10.2 2.1001 9.12552 2.1001 7.80004C2.1001 6.47456 3.17459 5.40002 4.50007 5.40002C5.33036 5.40002 6.06216 5.82163 6.49308 6.46246L4.50007 10.2Z" fill="#D2DCF1"/>
<path d="M4.49993 6.02835C3.93657 6.02835 3.47827 6.48664 3.47827 7.04997C3.47827 7.61333 3.93657 8.07162 4.49993 8.07162C4.70607 8.07162 4.89803 8.01005 5.05872 7.90462C5.1078 7.9533 5.17534 7.9834 5.24991 7.9834C5.39996 7.9834 5.52154 7.86182 5.52154 7.71177V7.04997C5.52158 6.48668 5.06329 6.02835 4.49993 6.02835ZM4.49993 7.52836C4.23615 7.52836 4.02153 7.31374 4.02153 7.04997C4.02153 6.7862 4.23615 6.57161 4.49993 6.57161C4.7637 6.57161 4.97832 6.7862 4.97832 7.04997C4.97832 7.31374 4.7637 7.52836 4.49993 7.52836Z" fill="#464656"/>
<path d="M4.55849 9.02486C4.53915 9.02725 4.51945 9.02841 4.49993 9.02841C4.23615 9.02841 4.02153 8.81378 4.02153 8.55001C4.02153 8.39996 3.89995 8.27838 3.7499 8.27838C3.59985 8.27838 3.47827 8.39996 3.47827 8.55001C3.47827 9.11337 3.93657 9.57167 4.49993 9.57167C4.54118 9.57167 4.58279 9.56917 4.62364 9.56424C4.77257 9.54624 4.87872 9.4109 4.86076 9.26197C4.84272 9.11297 4.7068 9.00704 4.55849 9.02486Z" fill="#464656"/>
<path d="M4.49857 5.40002C4.37097 5.40002 4.24577 5.4102 4.12354 5.4294C5.27083 5.60947 6.14848 6.60215 6.14848 7.80004C6.14848 8.99789 5.27083 9.9906 4.12354 10.1706C4.24577 10.1898 4.37097 10.2 4.49857 10.2C5.82405 10.2 6.89854 9.12552 6.89854 7.80004C6.89854 6.47456 5.82401 5.40002 4.49857 5.40002Z" fill="#B5C3EB"/>
<path d="M9 14.7C11.4853 14.7 13.5 12.6853 13.5 10.2C13.5 7.71476 11.4853 5.70004 9 5.70004C6.51472 5.70004 4.5 7.71476 4.5 10.2C4.5 12.6853 6.51472 14.7 9 14.7Z" fill="#464656"/>
<path d="M9.00011 5.70001C8.87817 5.70001 8.75742 5.70505 8.63794 5.71454C10.9539 5.89899 12.7758 7.83665 12.7758 10.2C12.7758 12.5634 10.9539 14.501 8.63794 14.6855C8.75742 14.695 8.87817 14.7 9.00011 14.7C11.4854 14.7 13.5001 12.6853 13.5001 10.2C13.5001 7.71474 11.4854 5.70001 9.00011 5.70001Z" fill="#3B3B47"/>
<path d="M9.00007 12.6C10.3255 12.6 11.4 11.5255 11.4 10.2C11.4 8.87455 10.3255 7.80005 9.00007 7.80005C7.6746 7.80005 6.6001 8.87455 6.6001 10.2C6.6001 11.5255 7.6746 12.6 9.00007 12.6Z" fill="#D2DCF1"/>
<path d="M9.00003 7.80002C8.87244 7.80002 8.74723 7.81019 8.625 7.82939C9.77229 8.00946 10.6499 9.00214 10.6499 10.2C10.6499 11.3979 9.77229 12.3906 8.625 12.5707C8.74723 12.5899 8.87244 12.6 9.00003 12.6C10.3255 12.6 11.4 11.5255 11.4 10.2001C11.4 8.87459 10.3255 7.80002 9.00003 7.80002Z" fill="#B5C3EB"/>
<path d="M9.69269 10.2C9.89475 10.0133 10.0216 9.74622 10.0216 9.45C10.0216 8.88664 9.56329 8.42834 8.99993 8.42834C8.43657 8.42834 7.97827 8.88664 7.97827 9.45C7.97827 9.74622 8.1051 10.0133 8.30716 10.2C8.1051 10.3868 7.97827 10.6538 7.97827 10.95C7.97827 11.5134 8.43657 11.9717 8.99993 11.9717C9.56329 11.9717 10.0216 11.5134 10.0216 10.95C10.0216 10.6538 9.89475 10.3868 9.69269 10.2ZM8.52153 9.45C8.52153 9.18623 8.73615 8.9716 8.99993 8.9716C9.2637 8.9716 9.47832 9.18623 9.47832 9.45C9.47832 9.71377 9.2637 9.92839 8.99993 9.92839C8.73615 9.92839 8.52153 9.71377 8.52153 9.45ZM8.99993 11.4284C8.73615 11.4284 8.52153 11.2138 8.52153 10.95C8.52153 10.6863 8.73615 10.4717 8.99993 10.4717C9.2637 10.4717 9.47832 10.6863 9.47832 10.95C9.47832 11.2138 9.2637 11.4284 8.99993 11.4284Z" fill="#464656"/>
</g>
<defs>
<clipPath id="clip0_27_3963">
<rect width="18" height="18" fill="white"/>
</clipPath>
</defs>
</svg>
