<svg width="18" height="18" viewBox="0 0 18 18" fill="none" xmlns="http://www.w3.org/2000/svg">
<g clip-path="url(#clip0_27_3686)">
<path fill-rule="evenodd" clip-rule="evenodd" d="M9 18C11.3906 18 13.6758 17.0508 15.3633 15.3633C18.8789 11.8477 18.8789 6.15234 15.3633 2.63672C13.6758 0.949219 11.3906 0 9 0C6.60938 0 4.32422 0.949219 2.63672 2.63672C0.949219 4.32422 0 6.60938 0 9C0 11.3906 0.949219 13.6758 2.63672 15.3633C4.32422 17.0508 6.60938 18 9 18Z" fill="#CCE42E"/>
<path fill-rule="evenodd" clip-rule="evenodd" d="M9.52734 17.9648C9.87891 17.9648 10.1953 17.9297 10.5469 17.8594C10.4414 15.1523 9.35156 12.5508 7.38281 10.6172C5.44922 8.64844 2.88281 7.55859 0.140625 7.48828C0.0703125 7.80469 0.0351562 8.12109 0.0351562 8.47266C2.53125 8.54297 4.88672 9.52734 6.67969 11.3203C8.47266 13.1133 9.49219 15.5039 9.52734 17.9648Z" fill="white"/>
<path fill-rule="evenodd" clip-rule="evenodd" d="M17.8594 10.5117C17.9297 10.1953 17.9648 9.84375 17.9648 9.52734C15.5039 9.45703 13.1133 8.47266 11.3203 6.67969C9.52734 4.88672 8.54297 2.53125 8.47266 0.0351562C8.15625 0.0351562 7.80469 0.0703125 7.48828 0.140625C7.55859 2.88281 8.64844 5.44922 10.6172 7.38281C12.5508 9.35156 15.1523 10.4414 17.8594 10.5117Z" fill="white"/>
<path fill-rule="evenodd" clip-rule="evenodd" d="M2.07422 7.69922C2.25 5.58984 3.16406 3.62109 4.71094 2.07422C5.51953 1.26562 6.46875 0.632812 7.48828 0.175781V0.140625C5.66016 0.457031 3.97266 1.30078 2.63672 2.63672C1.30078 3.97266 0.457031 5.66016 0.140625 7.48828C0.808594 7.48828 1.44141 7.55859 2.07422 7.69922Z" fill="#B9D639"/>
<path fill-rule="evenodd" clip-rule="evenodd" d="M4.71094 14.8008C3.05859 13.1836 2.14453 11.0391 2.07422 8.71875C1.40625 8.57812 0.703125 8.50781 0.0351562 8.47266C0 8.64844 0 8.82422 0 9C0 11.3906 0.949219 13.6758 2.63672 15.3633C4.32422 17.0508 6.60938 18 9 18C9.17578 18 9.35156 18 9.52734 17.9648C9.52734 17.7539 9.52734 17.543 9.49219 17.2969C7.69922 16.9805 6.01172 16.1367 4.71094 14.8008Z" fill="#B9D639"/>
<path fill-rule="evenodd" clip-rule="evenodd" d="M11.0742 17.4375C10.8633 17.4375 10.6875 17.4375 10.5117 17.4375C10.5117 17.5781 10.5117 17.7188 10.5469 17.8594C11.1445 17.7539 11.7773 17.5781 12.3398 17.3672C11.918 17.4023 11.4961 17.4375 11.0742 17.4375Z" fill="#B9D639"/>
</g>
<defs>
<clipPath id="clip0_27_3686">
<rect width="18" height="18" fill="white"/>
</clipPath>
</defs>
</svg>
