<svg width="18" height="18" viewBox="0 0 18 18" fill="none" xmlns="http://www.w3.org/2000/svg">
<path fill-rule="evenodd" clip-rule="evenodd" d="M10.7347 12.3269L9.62754 9.43762L4.78747 5.69421C4.46058 6.98068 4.61875 8.38314 5.29362 9.60634L0.221559 14.1406C0.0950216 14.2566 0.0212079 14.4148 0.0106631 14.594C0.000118271 14.7628 0.0633872 14.9315 0.168835 15.058L0.906972 15.8805C1.03351 16.0176 1.20223 16.0914 1.39203 16.0914C1.55021 16.0914 1.70838 16.0387 1.82437 15.9332L6.88588 11.399C7.79274 12.0316 8.87885 12.3796 9.98606 12.3796C10.2391 12.3796 10.4922 12.3585 10.7347 12.3269Z" fill="#CBB292"/>
<path fill-rule="evenodd" clip-rule="evenodd" d="M4.78743 5.69421C5.05105 4.68191 5.59938 3.75397 6.41133 3.02637C7.392 2.14061 8.66792 1.65555 9.98602 1.65555C11.5045 1.65555 12.9597 2.30933 13.9825 3.43762C15.9544 5.64149 15.7646 9.03692 13.5607 11.0088C12.7593 11.7258 11.7681 12.1898 10.7136 12.3269H10.7347L4.78743 5.69421Z" fill="#E64C3C"/>
<path fill-rule="evenodd" clip-rule="evenodd" d="M10.7346 12.3269L4.78735 5.6942C4.82953 5.53603 4.88226 5.37785 4.93498 5.21968L5.1037 4.79789C5.16697 4.66081 5.24078 4.52372 5.31459 4.39719L12.0738 11.9578C11.9684 12 11.4833 12.1371 11.2091 12.2214L11.2197 12.232C11.0615 12.2742 10.9033 12.3058 10.7346 12.3269Z" fill="#BA3D31"/>
<path fill-rule="evenodd" clip-rule="evenodd" d="M15.4799 16.3445C14.0985 16.3445 12.9702 15.2162 12.9702 13.8348C12.9702 12.4429 14.0985 11.3251 15.4799 11.3251C16.8613 11.3251 17.9895 12.4429 17.9895 13.8348C17.9895 15.2162 16.8613 16.3445 15.4799 16.3445Z" fill="#DBDBDB"/>
</svg>
