<svg width="22" height="22" viewBox="0 0 22 22" fill="none" xmlns="http://www.w3.org/2000/svg">
<path fill-rule="evenodd" clip-rule="evenodd" d="M10.9949 15.8657C10.9633 15.9234 10.9298 15.9793 10.8955 16.0343C10.745 16.2773 10.5532 16.5165 10.3464 16.9675C10.2399 17.2003 10.3376 17.4213 10.4168 17.6431C10.525 17.9493 10.6579 18.2536 10.7415 18.5579C10.9457 19.2995 10.9342 20.0438 10.1915 20.8166C9.9495 21.0687 9.5799 21.131 9.27454 20.9697C7.7451 20.1639 6.12766 18.8678 5.0787 17.3213C4.32982 16.2168 3.87046 14.9848 3.87926 13.7234C3.84758 10.2135 5.95694 7.83842 7.69142 6.54592C8.17102 6.18933 8.5019 5.62467 8.75006 4.99767C9.17598 3.91967 9.34406 2.65008 9.40126 1.66742C9.4171 1.38417 9.57198 1.13025 9.80958 0.993667C10.0481 0.857084 10.3367 0.858 10.5752 0.9955C13.2785 2.55383 14.0195 5.15533 14.0653 7.37917C14.1084 9.51592 13.4994 11.2778 13.4994 11.2778C13.3516 11.7068 12.8975 11.9295 12.4865 11.7764C12.0747 11.6224 11.8609 11.1503 12.0078 10.7213C12.0078 10.7213 12.5182 9.22625 12.4813 7.414C12.4531 6.01242 12.0914 4.40458 10.8339 3.20192C10.7133 4.00767 10.518 4.85833 10.2144 5.6265C9.84742 6.55325 9.32206 7.35992 8.61366 7.88792C7.20038 8.94117 5.43686 10.8497 5.46326 13.7216C5.45622 14.6603 5.8223 15.5568 6.37318 16.3698C7.10182 17.4451 8.15694 18.3737 9.22878 19.0557C9.22174 19.0236 9.21294 18.9924 9.20414 18.9613C9.14518 18.7651 9.06334 18.5698 8.98854 18.3737C8.72894 17.6843 8.58374 16.9831 8.91726 16.2571C9.12054 15.8116 9.30974 15.5302 9.47254 15.2827C9.62302 15.0535 9.74094 14.8702 9.79022 14.4513C9.82102 14.1808 9.97854 13.9443 10.21 13.8188C10.4414 13.6932 10.7169 13.6941 10.9474 13.8215C12.8667 14.883 13.583 16.7356 13.8391 18.8962C15.3905 17.8383 16.6595 16.1673 16.7132 14.3009C16.7774 12.0615 15.937 10.9432 14.6786 9.07133C14.4278 8.69825 14.5149 8.18308 14.8731 7.92183C15.2313 7.6615 15.7249 7.75225 15.9757 8.12442C17.4656 10.34 18.372 11.7003 18.2963 14.3495C18.2145 17.2104 15.9784 19.7899 13.4809 20.9834C13.2363 21.1008 12.9503 21.0797 12.7233 20.9284C12.498 20.7772 12.3607 20.5187 12.3589 20.24C12.2771 18.5258 12.0615 16.9208 10.9949 15.8657Z" fill="#656EF5"/>
</svg>
