<svg width="18" height="18" viewBox="0 0 18 18" fill="none" xmlns="http://www.w3.org/2000/svg">
<g clip-path="url(#clip0_27_3706)">
<path d="M18 11.2683C18 13.6727 13.9706 15.6219 9 15.6219C4.02943 15.6219 0 13.6728 0 11.2683V6.73172H18V11.2683Z" fill="#544F56"/>
<path d="M16.4636 6.73172V11.2683C16.4636 13.5475 12.8428 15.4174 8.23193 15.606C8.48523 15.6164 8.74138 15.622 9.00024 15.622C13.9708 15.622 18.0002 13.6728 18.0002 11.2683V6.73172H16.4636Z" fill="#444145"/>
<path d="M9 11.0854C13.9706 11.0854 18 9.13616 18 6.73171C18 4.32726 13.9706 2.37807 9 2.37807C4.02944 2.37807 0 4.32726 0 6.73171C0 9.13616 4.02944 11.0854 9 11.0854Z" fill="#766D78"/>
<path d="M9.00001 2.37804C8.84047 2.37804 8.68191 2.38011 8.52441 2.38408C13.2738 2.50372 17.0488 4.40441 17.0488 6.73168C17.0488 9.05896 13.2738 10.9597 8.52441 11.0793C8.68191 11.0833 8.84047 11.0854 9.00001 11.0854C13.9706 11.0854 18 9.13616 18 6.73172C18 4.32727 13.9706 2.37804 9.00001 2.37804Z" fill="#655E67"/>
<path d="M8.99979 9.43902C12.7176 9.43902 15.7315 8.22692 15.7315 6.73171C15.7315 5.2365 12.7176 4.0244 8.99979 4.0244C5.28196 4.0244 2.26807 5.2365 2.26807 6.73171C2.26807 8.22692 5.28196 9.43902 8.99979 9.43902Z" fill="#655E67"/>
</g>
<defs>
<clipPath id="clip0_27_3706">
<rect width="18" height="18" fill="white"/>
</clipPath>
</defs>
</svg>
