<svg width="20" height="20" viewBox="0 0 20 20" fill="none" xmlns="http://www.w3.org/2000/svg">
<path d="M18.0583 11.9167L17.725 16.0833C17.6 17.3583 17.5 18.3333 15.2416 18.3333H4.7583C2.49997 18.3333 2.39997 17.3583 2.27497 16.0833L1.94163 11.9167C1.87497 11.225 2.09163 10.5833 2.4833 10.0917C2.49163 10.0833 2.49163 10.0833 2.49997 10.075C2.9583 9.51666 3.64997 9.16666 4.42497 9.16666H15.575C16.35 9.16666 17.0333 9.51666 17.4833 10.0583C17.4916 10.0667 17.5 10.075 17.5 10.0833C17.9083 10.575 18.1333 11.2167 18.0583 11.9167Z" stroke="#656EF5" stroke-width="1.5" stroke-miterlimit="10"/>
<path d="M2.9165 9.525V5.23333C2.9165 2.4 3.62484 1.69167 6.45817 1.69167H7.5165C8.57484 1.69167 8.8165 2.00833 9.2165 2.54167L10.2748 3.95833C10.5415 4.30833 10.6998 4.525 11.4082 4.525H13.5332C16.3665 4.525 17.0748 5.23333 17.0748 8.06667V9.55833" stroke="#656EF5" stroke-width="1.5" stroke-miterlimit="10" stroke-linecap="round" stroke-linejoin="round"/>
<path d="M7.8584 14.1667H12.1417" stroke="#656EF5" stroke-width="1.5" stroke-miterlimit="10" stroke-linecap="round" stroke-linejoin="round"/>
</svg>
