<svg width="20" height="20" viewBox="0 0 20 20" fill="none" xmlns="http://www.w3.org/2000/svg">
<path d="M12.4165 1.66666H7.58318C7.01651 1.66666 6.2165 2 5.8165 2.4L2.39984 5.81667C1.99984 6.21667 1.6665 7.01667 1.6665 7.58334V12.4167C1.6665 12.9833 1.99984 13.7833 2.39984 14.1833L5.8165 17.6C6.2165 18 7.01651 18.3333 7.58318 18.3333H12.4165C12.9832 18.3333 13.7832 18 14.1832 17.6L17.5998 14.1833C17.9998 13.7833 18.3332 12.9833 18.3332 12.4167V7.58334C18.3332 7.01667 17.9998 6.21667 17.5998 5.81667L14.1832 2.4C13.7832 2 12.9832 1.66666 12.4165 1.66666Z" stroke="#656EF5" stroke-width="1.5" stroke-linecap="round" stroke-linejoin="round"/>
<path d="M7.0835 12.9167L12.9168 7.08333" stroke="#656EF5" stroke-width="1.5" stroke-linecap="round" stroke-linejoin="round"/>
<path d="M12.9168 12.9167L7.0835 7.08333" stroke="#656EF5" stroke-width="1.5" stroke-linecap="round" stroke-linejoin="round"/>
</svg>
